  0
SECTION
  2
HEADER
  9
$ACADVER
  1
AC1015
  9
$ACADMAINTVER
 70
     6
  9
$DWGCODEPAGE
  3
ANSI_1252
  9
$INSBASE
 10
0.0
 20
0.0
 30
0.0
  9
$EXTMIN
 10
-29.0
 20
-29.0
 30
0.0
  9
$EXTMAX
 10
29.0
 20
29.0
 30
0.0
  9
$LIMMIN
 10
0.0
 20
0.0
  9
$LIMMAX
 10
420.0
 20
297.0
  9
$ORTHOMODE
 70
     0
  9
$REGENMODE
 70
     1
  9
$FILLMODE
 70
     1
  9
$QTEXTMODE
 70
     0
  9
$MIRRTEXT
 70
     1
  9
$LTSCALE
 40
1.0
  9
$ATTMODE
 70
     1
  9
$TEXTSIZE
 40
3.5
  9
$TRACEWID
 40
1.0
  9
$TEXTSTYLE
  7
Standard
  9
$CLAYER
  8
0
  9
$CELTYPE
  6
ByLayer
  9
$CECOLOR
 62
   256
  9
$CELTSCALE
 40
1.0
  9
$DISPSILH
 70
     0
  9
$DIMSCALE
 40
1.0
  9
$DIMASZ
 40
3.302
  9
$DIMEXO
 40
0.0
  9
$DIMDLI
 40
3.75
  9
$DIMRND
 40
0.0
  9
$DIMDLE
 40
0.0
  9
$DIMEXE
 40
1.0
  9
$DIMTP
 40
0.0
  9
$DIMTM
 40
0.0
  9
$DIMTXT
 40
3.5
  9
$DIMCEN
 40
2.5
  9
$DIMTSZ
 40
0.0
  9
$DIMTOL
 70
     0
  9
$DIMLIM
 70
     0
  9
$DIMTIH
 70
     1
  9
$DIMTOH
 70
     1
  9
$DIMSE1
 70
     0
  9
$DIMSE2
 70
     0
  9
$DIMTAD
 70
     1
  9
$DIMZIN
 70
     1
  9
$DIMBLK
  1

  9
$DIMASO
 70
     1
  9
$DIMSHO
 70
     1
  9
$DIMPOST
  1

  9
$DIMAPOST
  1

  9
$DIMALT
 70
     0
  9
$DIMALTD
 70
     3
  9
$DIMALTF
 40
0.0393700787
  9
$DIMLFAC
 40
1.0
  9
$DIMTOFL
 70
     1
  9
$DIMTVP
 40
0.0
  9
$DIMTIX
 70
     0
  9
$DIMSOXD
 70
     0
  9
$DIMSAH
 70
     0
  9
$DIMBLK1
  1

  9
$DIMBLK2
  1

  9
$DIMSTYLE
  2
ISO-25
  9
$DIMCLRD
 70
     0
  9
$DIMCLRE
 70
     0
  9
$DIMCLRT
 70
     0
  9
$DIMTFAC
 40
1.0
  9
$DIMGAP
 40
1.524
  9
$DIMJUST
 70
     0
  9
$DIMSD1
 70
     0
  9
$DIMSD2
 70
     0
  9
$DIMTOLJ
 70
     0
  9
$DIMTZIN
 70
     1
  9
$DIMALTZ
 70
     0
  9
$DIMALTTZ
 70
     0
  9
$DIMUPT
 70
     0
  9
$DIMDEC
 70
     2
  9
$DIMTDEC
 70
     2
  9
$DIMALTU
 70
     2
  9
$DIMALTTD
 70
     3
  9
$DIMTXSTY
  7
Standard
  9
$DIMAUNIT
 70
     0
  9
$DIMADEC
 70
     2
  9
$DIMALTRND
 40
0.0
  9
$DIMAZIN
 70
     0
  9
$DIMDSEP
 70
    44
  9
$DIMATFIT
 70
     3
  9
$DIMFRAC
 70
     0
  9
$DIMLDRBLK
  1

  9
$DIMLUNIT
 70
     2
  9
$DIMLWD
 70
    -2
  9
$DIMLWE
 70
    -2
  9
$DIMTMOVE
 70
     0
  9
$LUNITS
 70
     2
  9
$LUPREC
 70
     2
  9
$SKETCHINC
 40
1.0
  9
$FILLETRAD
 40
0.0
  9
$AUNITS
 70
     0
  9
$AUPREC
 70
     2
  9
$MENU
  1
.
  9
$ELEVATION
 40
0.0
  9
$PELEVATION
 40
0.0
  9
$THICKNESS
 40
0.0
  9
$LIMCHECK
 70
     0
  9
$CHAMFERA
 40
0.0
  9
$CHAMFERB
 40
0.0
  9
$CHAMFERC
 40
0.0
  9
$CHAMFERD
 40
0.0
  9
$SKPOLY
 70
     0
  9
$TDCREATE
 40
2461216.628156748
  9
$TDUCREATE
 40
2461216.836490081
  9
$TDUPDATE
 40
2461216.628218218
  9
$TDUUPDATE
 40
2461216.836551551
  9
$TDINDWG
 40
0.0000000116
  9
$TDUSRTIMER
 40
0.0000000116
  9
$USRTIMER
 70
     1
  9
$ANGBASE
 50
0.0
  9
$ANGDIR
 70
     0
  9
$PDMODE
 70
     0
  9
$PDSIZE
 40
-1.0
  9
$PLINEWID
 40
0.0
  9
$SPLFRAME
 70
     0
  9
$SPLINETYPE
 70
     6
  9
$SPLINESEGS
 70
     8
  9
$HANDSEED
  5
252
  9
$SURFTAB1
 70
     6
  9
$SURFTAB2
 70
     6
  9
$SURFTYPE
 70
     6
  9
$SURFU
 70
     6
  9
$SURFV
 70
     6
  9
$UCSBASE
  2

  9
$UCSNAME
  2

  9
$UCSORG
 10
0.0
 20
0.0
 30
0.0
  9
$UCSXDIR
 10
1.0
 20
0.0
 30
0.0
  9
$UCSYDIR
 10
0.0
 20
1.0
 30
0.0
  9
$UCSORTHOREF
  2

  9
$UCSORTHOVIEW
 70
     0
  9
$UCSORGTOP
 10
0.0
 20
0.0
 30
0.0
  9
$UCSORGBOTTOM
 10
0.0
 20
0.0
 30
0.0
  9
$UCSORGLEFT
 10
0.0
 20
0.0
 30
0.0
  9
$UCSORGRIGHT
 10
0.0
 20
0.0
 30
0.0
  9
$UCSORGFRONT
 10
0.0
 20
0.0
 30
0.0
  9
$UCSORGBACK
 10
0.0
 20
0.0
 30
0.0
  9
$PUCSBASE
  2

  9
$PUCSNAME
  2

  9
$PUCSORG
 10
0.0
 20
0.0
 30
0.0
  9
$PUCSXDIR
 10
1.0
 20
0.0
 30
0.0
  9
$PUCSYDIR
 10
0.0
 20
1.0
 30
0.0
  9
$PUCSORTHOREF
  2

  9
$PUCSORTHOVIEW
 70
     0
  9
$PUCSORGTOP
 10
0.0
 20
0.0
 30
0.0
  9
$PUCSORGBOTTOM
 10
0.0
 20
0.0
 30
0.0
  9
$PUCSORGLEFT
 10
0.0
 20
0.0
 30
0.0
  9
$PUCSORGRIGHT
 10
0.0
 20
0.0
 30
0.0
  9
$PUCSORGFRONT
 10
0.0
 20
0.0
 30
0.0
  9
$PUCSORGBACK
 10
0.0
 20
0.0
 30
0.0
  9
$USERI1
 70
     0
  9
$USERI2
 70
     0
  9
$USERI3
 70
     0
  9
$USERI4
 70
     0
  9
$USERI5
 70
     0
  9
$USERR1
 40
0.0
  9
$USERR2
 40
0.0
  9
$USERR3
 40
0.0
  9
$USERR4
 40
0.0
  9
$USERR5
 40
0.0
  9
$WORLDVIEW
 70
     1
  9
$SHADEDGE
 70
     3
  9
$SHADEDIF
 70
    70
  9
$TILEMODE
 70
     1
  9
$MAXACTVP
 70
    64
  9
$PINSBASE
 10
0.0
 20
0.0
 30
0.0
  9
$PLIMCHECK
 70
     0
  9
$PEXTMIN
 10
1.0000000000E+20
 20
1.0000000000E+20
 30
1.0000000000E+20
  9
$PEXTMAX
 10
-1.0000000000E+20
 20
-1.0000000000E+20
 30
-1.0000000000E+20
  9
$PLIMMIN
 10
0.0
 20
0.0
  9
$PLIMMAX
 10
420.0
 20
297.0
  9
$UNITMODE
 70
     0
  9
$VISRETAIN
 70
     1
  9
$PLINEGEN
 70
     0
  9
$PSLTSCALE
 70
     1
  9
$TREEDEPTH
 70
  3020
  9
$CMLSTYLE
  2
Standard
  9
$CMLJUST
 70
     0
  9
$CMLSCALE
 40
20.0
  9
$PROXYGRAPHICS
 70
     1
  9
$MEASUREMENT
 70
     1
  9
$CELWEIGHT
370
    -1
  9
$ENDCAPS
280
     0
  9
$JOINSTYLE
280
     0
  9
$LWDISPLAY
290
     1
  9
$INSUNITS
 70
     4
  9
$HYPERLINKBASE
  1

  9
$STYLESHEET
  1

  9
$XEDIT
290
     1
  9
$CEPSNTYPE
380
     0
  9
$PSTYLEMODE
290
     1
  9
$FINGERPRINTGUID
  2
{0d853cf7-78ff-4b3d-b712-00f7ce521238}
  9
$VERSIONGUID
  2
{FAEB1C32-E019-11D5-929B-00C0DF256EC4}
  9
$EXTNAMES
290
     1
  9
$PSVPSCALE
 40
0.0
  9
$OLESTARTUP
290
     0
  0
ENDSEC
  0
SECTION
  2
CLASSES
  0
CLASS
  1
ACDBDICTIONARYWDFLT
  2
AcDbDictionaryWithDefault
  3
ObjectDBX Classes
 90
        0
280
     0
281
     0
  0
CLASS
  1
VISUALSTYLE
  2
AcDbVisualStyle
  3
ObjectDBX Classes
 90
     4095
280
     0
281
     0
  0
CLASS
  1
MATERIAL
  2
AcDbMaterial
  3
ObjectDBX Classes
 90
     1153
280
     0
281
     0
  0
CLASS
  1
SCALE
  2
AcDbScale
  3
ObjectDBX Classes
 90
     1153
280
     0
281
     0
  0
CLASS
  1
TABLESTYLE
  2
AcDbTableStyle
  3
ObjectDBX Classes
 90
     4095
280
     0
281
     0
  0
CLASS
  1
MLEADERSTYLE
  2
AcDbMLeaderStyle
  3
ACDB_MLEADERSTYLE_CLASS
 90
     4095
280
     0
281
     0
  0
CLASS
  1
SUN
  2
AcDbSun
  3
SCENEOE
 90
     1153
280
     0
281
     0
  0
CLASS
  1
ACDBPLACEHOLDER
  2
AcDbPlaceHolder
  3
ObjectDBX Classes
 90
        0
280
     0
281
     0
  0
CLASS
  1
LAYOUT
  2
AcDbLayout
  3
ObjectDBX Classes
 90
        0
280
     0
281
     0
  0
ENDSEC
  0
SECTION
  2
TABLES
  0
TABLE
  2
VPORT
  5
8
330
0
100
AcDbSymbolTable
 70
     1
  0
VPORT
  5
29
330
8
100
AcDbSymbolTableRecord
100
AcDbViewportTableRecord
  2
*Active
 70
     0
 10
0.0
 20
0.0
 11
1.0
 21
1.0
 12
0.0
 22
0.0
 13
0.0
 23
0.0
 14
10.0
 24
10.0
 15
10.0
 25
10.0
 16
0.0
 26
0.0
 36
1.0
 17
0.0
 27
0.0
 37
0.0
 40
59.16
 41
1.0
 42
50.0
 43
0.0
 44
0.0
 50
0.0
 51
0.0
 71
     0
 72
   100
 73
     1
 74
     3
 75
     0
 76
     0
 77
     0
 78
     0
281
     0
 65
     1
110
0.0
120
0.0
130
0.0
111
1.0
121
0.0
131
0.0
112
0.0
122
1.0
132
0.0
 79
     0
146
0.0
  0
ENDTAB
  0
TABLE
  2
LTYPE
  5
5
330
0
100
AcDbSymbolTable
 70
     6
  0
LTYPE
  5
14
330
5
100
AcDbSymbolTableRecord
100
AcDbLinetypeTableRecord
  2
ByBlock
 70
     0
  3

 72
    65
 73
     0
 40
0.0
  0
LTYPE
  5
15
330
5
100
AcDbSymbolTableRecord
100
AcDbLinetypeTableRecord
  2
ByLayer
 70
     0
  3

 72
    65
 73
     0
 40
0.0
  0
LTYPE
  5
16
330
5
100
AcDbSymbolTableRecord
100
AcDbLinetypeTableRecord
  2
Continuous
 70
     0
  3
Solid line
 72
    65
 73
     0
 40
0.0
  0
LTYPE
  5
5E
330
5
100
AcDbSymbolTableRecord
100
AcDbLinetypeTableRecord
  2
HIDDEN
 70
     0
  3
Hidden __ __ __ __ __ __ __ __ __ __ __ __ __ __
 72
    65
 73
     2
 40
1.905
 49
1.27
 74
     0
 49
-0.635
 74
     0
  0
LTYPE
  5
5F
330
5
100
AcDbSymbolTableRecord
100
AcDbLinetypeTableRecord
  2
PHANTOM
 70
     0
  3
Phantom ______  __  __  ______  __  __  ______
 72
    65
 73
     6
 40
12.7
 49
6.35
 74
     0
 49
-1.27
 74
     0
 49
1.27
 74
     0
 49
-1.27
 74
     0
 49
1.27
 74
     0
 49
-1.27
 74
     0
  0
LTYPE
  5
60
330
5
100
AcDbSymbolTableRecord
100
AcDbLinetypeTableRecord
  2
CENTER
 70
     0
  3
Center ____ _ ____ _ ____ _ ____ _ ____ _ ____
 72
    65
 73
     4
 40
10.16
 49
6.35
 74
     0
 49
-1.27
 74
     0
 49
1.27
 74
     0
 49
-1.27
 74
     0
  0
LTYPE
  5
61
330
5
100
AcDbSymbolTableRecord
100
AcDbLinetypeTableRecord
  2
CENTERX2
 70
     0
  3
Center (2x) ________  __  ________  __  _____
 72
    65
 73
     4
 40
20.32
 49
12.7
 74
     0
 49
-2.54
 74
     0
 49
2.54
 74
     0
 49
-2.54
 74
     0
  0
LTYPE
  5
62
330
5
100
AcDbSymbolTableRecord
100
AcDbLinetypeTableRecord
  2
DOT2
 70
     0
  3
Dot (.5x) ........................................
 72
    65
 73
     2
 40
0.635
 49
0.0
 74
     0
 49
-0.635
 74
     0
  0
ENDTAB
  0
TABLE
  2
LAYER
  5
2
330
0
100
AcDbSymbolTable
 70
     1
  0
LAYER
  5
10
330
2
100
AcDbSymbolTableRecord
100
AcDbLayerTableRecord
  2
0
 70
     0
 62
     7
  6
Continuous
370
    -3
390
F
  0
ENDTAB
  0
TABLE
  2
STYLE
  5
3
330
0
100
AcDbSymbolTable
 70
     1
  0
STYLE
  5
11
330
3
100
AcDbSymbolTableRecord
100
AcDbTextStyleTableRecord
  2
Standard
 70
     0
 40
0.0
 41
1.0
 50
0.0
 71
     0
 42
3.5
  3
txt
  4

  0
ENDTAB
  0
TABLE
  2
VIEW
  5
6
330
0
100
AcDbSymbolTable
 70
     0
  0
ENDTAB
  0
TABLE
  2
UCS
  5
7
330
0
100
AcDbSymbolTable
 70
     0
  0
ENDTAB
  0
TABLE
  2
APPID
  5
9
330
0
100
AcDbSymbolTable
 70
     1
  0
APPID
  5
12
330
9
100
AcDbSymbolTableRecord
100
AcDbRegAppTableRecord
  2
ACAD
 70
     0
  0
ENDTAB
  0
TABLE
  2
DIMSTYLE
  5
A
330
0
100
AcDbSymbolTable
 70
     1
100
AcDbDimStyleTable
  0
DIMSTYLE
105
27
330
A
100
AcDbSymbolTableRecord
100
AcDbDimStyleTableRecord
  2
ISO-25
 70
     0
 41
2.5
 42
0.625
 43
3.75
 44
1.25
 73
     0
 74
     0
 77
     1
 78
     8
140
2.5
141
2.5
143
0.0393700787
147
0.625
171
     3
172
     1
178
     0
271
     2
272
     2
274
     3
278
    44
283
     0
284
     8
340
11
  0
ENDTAB
  0
TABLE
  2
BLOCK_RECORD
  5
1
330
0
100
AcDbSymbolTable
 70
     1
  0
BLOCK_RECORD
  5
1F
330
1
100
AcDbSymbolTableRecord
100
AcDbBlockTableRecord
  2
*Model_Space
340
22
  0
BLOCK_RECORD
  5
1B
330
1
100
AcDbSymbolTableRecord
100
AcDbBlockTableRecord
  2
*Paper_Space
340
1E
  0
BLOCK_RECORD
  5
23
330
1
100
AcDbSymbolTableRecord
100
AcDbBlockTableRecord
  2
*Paper_Space0
340
26
  0
ENDTAB
  0
ENDSEC
  0
SECTION
  2
BLOCKS
  0
BLOCK
  5
20
330
1F
100
AcDbEntity
  8
0
100
AcDbBlockBegin
  2
*Model_Space
 70
     0
 10
0.0
 20
0.0
 30
0.0
  3
*Model_Space
  1

  0
ENDBLK
  5
21
330
1F
100
AcDbEntity
  8
0
100
AcDbBlockEnd
  0
BLOCK
  5
1C
330
1B
100
AcDbEntity
 67
     1
  8
0
100
AcDbBlockBegin
  2
*Paper_Space
 70
     0
 10
0.0
 20
0.0
 30
0.0
  3
*Paper_Space
  1

  0
ENDBLK
  5
1D
330
1B
100
AcDbEntity
 67
     1
  8
0
100
AcDbBlockEnd
  0
BLOCK
  5
24
330
23
100
AcDbEntity
  8
0
100
AcDbBlockBegin
  2
*Paper_Space0
 70
     0
 10
0.0
 20
0.0
 30
0.0
  3
*Paper_Space0
  1

  0
ENDBLK
  5
25
330
23
100
AcDbEntity
  8
0
100
AcDbBlockEnd
  0
ENDSEC
  0
SECTION
  2
ENTITIES
  0
CIRCLE
  5
63
330
1F
100
AcDbEntity
  8
0
  6
Continuous
 62
     7
100
AcDbCircle
 10
0.0
 20
0.0
 30
0.0
 40
29.0
  0
CIRCLE
  5
64
330
1F
100
AcDbEntity
  8
0
  6
Continuous
 62
     7
100
AcDbCircle
 10
0.0
 20
0.0
 30
0.0
 40
26.0
  0
LINE
  5
65
330
1F
100
AcDbEntity
  8
0
  6
Continuous
 62
     7
100
AcDbLine
 10
17.5658541617
 20
1.4488299459
 30
0.0
 11
15.1015223819
 21
-0.2348124833
 31
0.0
  0
LINE
  5
66
330
1F
100
AcDbEntity
  8
0
  6
Continuous
 62
     7
100
AcDbLine
 10
15.1015223819
 20
-0.2348124833
 30
0.0
 11
13.3299050787
 21
-1.4433395884
 31
0.0
  0
LINE
  5
67
330
1F
100
AcDbEntity
  8
0
  6
Continuous
 62
     7
100
AcDbLine
 10
13.3299050787
 20
-1.4433395884
 30
0.0
 11
12.9367896427
 21
-1.0597488341
 31
0.0
  0
LINE
  5
68
330
1F
100
AcDbEntity
  8
0
  6
Continuous
 62
     7
100
AcDbLine
 10
12.9367896427
 20
-1.0597488341
 30
0.0
 11
12.5436742067
 21
-0.6762447236
 31
0.0
  0
LINE
  5
69
330
1F
100
AcDbEntity
  8
0
  6
Continuous
 62
     7
100
AcDbLine
 10
12.5436742067
 20
-0.6762447236
 30
0.0
 11
12.15592725
 21
-1.0236411965
 31
0.0
  0
LINE
  5
6A
330
1F
100
AcDbEntity
  8
0
  6
Continuous
 62
     7
100
AcDbLine
 10
12.15592725
 20
-1.0236411965
 30
0.0
 11
11.5577846033
 21
-1.4965729987
 31
0.0
  0
LINE
  5
6B
330
1F
100
AcDbEntity
  8
0
  6
Continuous
 62
     7
100
AcDbLine
 10
11.5577846033
 20
-1.4965729987
 30
0.0
 11
10.7347801883
 21
-2.0264101412
 31
0.0
  0
LINE
  5
6C
330
1F
100
AcDbEntity
  8
0
  6
Continuous
 62
     7
100
AcDbLine
 10
10.7347801883
 20
-2.0264101412
 30
0.0
 11
9.5936251417
 21
-2.6688243331
 31
0.0
  0
LINE
  5
6D
330
1F
100
AcDbEntity
  8
0
  6
Continuous
 62
     7
100
AcDbLine
 10
9.5936251417
 20
-2.6688243331
 30
0.0
 11
8.0410301092
 21
-3.4794870384
 31
0.0
  0
LINE
  5
6E
330
1F
100
AcDbEntity
  8
0
  6
Continuous
 62
     7
100
AcDbLine
 10
8.0410301092
 20
-3.4794870384
 30
0.0
 11
6.2895097494
 21
-4.381578588
 31
0.0
  0
LINE
  5
6F
330
1F
100
AcDbEntity
  8
0
  6
Continuous
 62
     7
100
AcDbLine
 10
6.2895097494
 20
-4.381578588
 30
0.0
 11
5.1883669566
 21
-4.9793113335
 31
0.0
  0
LINE
  5
70
330
1F
100
AcDbEntity
  8
0
  6
Continuous
 62
     7
100
AcDbLine
 10
5.1883669566
 20
-4.9793113335
 30
0.0
 11
4.4698949721
 21
-5.4263950568
 31
0.0
  0
LINE
  5
71
330
1F
100
AcDbEntity
  8
0
  6
Continuous
 62
     7
100
AcDbLine
 10
4.4698949721
 20
-5.4263950568
 30
0.0
 11
3.8663863006
 21
-5.8765390488
 31
0.0
  0
LINE
  5
72
330
1F
100
AcDbEntity
  8
0
  6
Continuous
 62
     7
100
AcDbLine
 10
3.8663863006
 20
-5.8765390488
 30
0.0
 11
3.1399168234
 21
-6.4876389935
 31
0.0
  0
LINE
  5
73
330
1F
100
AcDbEntity
  8
0
  6
Continuous
 62
     7
100
AcDbLine
 10
3.1399168234
 20
-6.4876389935
 30
0.0
 11
2.5511488885
 21
-7.0695556865
 31
0.0
  0
LINE
  5
74
330
1F
100
AcDbEntity
  8
0
  6
Continuous
 62
     7
100
AcDbLine
 10
2.5511488885
 20
-7.0695556865
 30
0.0
 11
2.0616283577
 21
-7.6642497628
 31
0.0
  0
LINE
  5
75
330
1F
100
AcDbEntity
  8
0
  6
Continuous
 62
     7
100
AcDbLine
 10
2.0616283577
 20
-7.6642497628
 30
0.0
 11
1.6329015838
 21
-8.3136816116
 31
0.0
  0
LINE
  5
76
330
1F
100
AcDbEntity
  8
0
  6
Continuous
 62
     7
100
AcDbLine
 10
1.6329015838
 20
-8.3136816116
 30
0.0
 11
1.1249688775
 21
-9.1671058546
 31
0.0
  0
LINE
  5
77
330
1F
100
AcDbEntity
  8
0
  6
Continuous
 62
     7
100
AcDbLine
 10
1.1249688775
 20
-9.1671058546
 30
0.0
 11
1.3359003845
 21
-9.3337037176
 31
0.0
  0
LINE
  5
78
330
1F
100
AcDbEntity
  8
0
  6
Continuous
 62
     7
100
AcDbLine
 10
1.3359003845
 20
-9.3337037176
 30
0.0
 11
1.7306325987
 21
-9.6169508887
 31
0.0
  0
LINE
  5
79
330
1F
100
AcDbEntity
  8
0
  6
Continuous
 62
     7
100
AcDbLine
 10
1.7306325987
 20
-9.6169508887
 30
0.0
 11
2.0938274517
 21
-9.8140363239
 31
0.0
  0
LINE
  5
7A
330
1F
100
AcDbEntity
  8
0
  6
Continuous
 62
     7
100
AcDbLine
 10
2.0938274517
 20
-9.8140363239
 30
0.0
 11
2.4426212707
 21
-9.9325743686
 31
0.0
  0
LINE
  5
7B
330
1F
100
AcDbEntity
  8
0
  6
Continuous
 62
     7
100
AcDbLine
 10
2.4426212707
 20
-9.9325743686
 30
0.0
 11
2.7941508738
 21
-9.9801796138
 31
0.0
  0
LINE
  5
7C
330
1F
100
AcDbEntity
  8
0
  6
Continuous
 62
     7
100
AcDbLine
 10
2.7941508738
 20
-9.9801796138
 30
0.0
 11
3.3219127377
 21
-10.046593436
 31
0.0
  0
LINE
  5
7D
330
1F
100
AcDbEntity
  8
0
  6
Continuous
 62
     7
100
AcDbLine
 10
3.3219127377
 20
-10.046593436
 30
0.0
 11
3.0789647514
 21
-10.2723859501
 31
0.0
  0
LINE
  5
7E
330
1F
100
AcDbEntity
  8
0
  6
Continuous
 62
     7
100
AcDbLine
 10
3.0789647514
 20
-10.2723859501
 30
0.0
 11
2.4340258622
 21
-10.7496987868
 31
0.0
  0
LINE
  5
7F
330
1F
100
AcDbEntity
  8
0
  6
Continuous
 62
     7
100
AcDbLine
 10
2.4340258622
 20
-10.7496987868
 30
0.0
 11
1.9078986943
 21
-11.1397480632
 31
0.0
  0
LINE
  5
80
330
1F
100
AcDbEntity
  8
0
  6
Continuous
 62
     7
100
AcDbLine
 10
1.9078986943
 20
-11.1397480632
 30
0.0
 11
1.4838936393
 21
-11.5019515442
 31
0.0
  0
LINE
  5
81
330
1F
100
AcDbEntity
  8
0
  6
Continuous
 62
     7
100
AcDbLine
 10
1.4838936393
 20
-11.5019515442
 30
0.0
 11
1.1535856308
 21
-11.8509188962
 31
0.0
  0
LINE
  5
82
330
1F
100
AcDbEntity
  8
0
  6
Continuous
 62
     7
100
AcDbLine
 10
1.1535856308
 20
-11.8509188962
 30
0.0
 11
0.9085496025
 21
-12.2012602766
 31
0.0
  0
LINE
  5
83
330
1F
100
AcDbEntity
  8
0
  6
Continuous
 62
     7
100
AcDbLine
 10
0.9085496025
 20
-12.2012602766
 30
0.0
 11
0.7403602426
 21
-12.5675853516
 31
0.0
  0
LINE
  5
84
330
1F
100
AcDbEntity
  8
0
  6
Continuous
 62
     7
100
AcDbLine
 10
0.7403602426
 20
-12.5675853516
 30
0.0
 11
0.6405922394
 21
-12.964504524
 31
0.0
  0
LINE
  5
85
330
1F
100
AcDbEntity
  8
0
  6
Continuous
 62
     7
100
AcDbLine
 10
0.6405922394
 20
-12.964504524
 30
0.0
 11
0.6008205264
 21
-13.4066269693
 31
0.0
  0
LINE
  5
86
330
1F
100
AcDbEntity
  8
0
  6
Continuous
 62
     7
100
AcDbLine
 10
0.6008205264
 20
-13.4066269693
 30
0.0
 11
0.6126197919
 21
-13.9085633356
 31
0.0
  0
LINE
  5
87
330
1F
100
AcDbEntity
  8
0
  6
Continuous
 62
     7
100
AcDbLine
 10
0.6126197919
 20
-13.9085633356
 30
0.0
 11
0.6684156988
 21
-14.4608407312
 31
0.0
  0
LINE
  5
88
330
1F
100
AcDbEntity
  8
0
  6
Continuous
 62
     7
100
AcDbLine
 10
0.6684156988
 20
-14.4608407312
 30
0.0
 11
0.731420468
 21
-14.6905513614
 31
0.0
  0
LINE
  5
89
330
1F
100
AcDbEntity
  8
0
  6
Continuous
 62
     7
100
AcDbLine
 10
0.731420468
 20
-14.6905513614
 30
0.0
 11
1.1054725499
 21
-14.5205684994
 31
0.0
  0
LINE
  5
8A
330
1F
100
AcDbEntity
  8
0
  6
Continuous
 62
     7
100
AcDbLine
 10
1.1054725499
 20
-14.5205684994
 30
0.0
 11
1.9226077679
 21
-14.0818067535
 31
0.0
  0
LINE
  5
8B
330
1F
100
AcDbEntity
  8
0
  6
Continuous
 62
     7
100
AcDbLine
 10
1.9226077679
 20
-14.0818067535
 30
0.0
 11
4.1119534824
 21
-12.825071333
 31
0.0
  0
LINE
  5
8C
330
1F
100
AcDbEntity
  8
0
  6
Continuous
 62
     7
100
AcDbLine
 10
4.1119534824
 20
-12.825071333
 30
0.0
 11
5.11822966
 21
-12.2484298483
 31
0.0
  0
LINE
  5
8D
330
1F
100
AcDbEntity
  8
0
  6
Continuous
 62
     7
100
AcDbLine
 10
5.11822966
 20
-12.2484298483
 30
0.0
 11
5.587175602
 21
-12.0253323736
 31
0.0
  0
LINE
  5
8E
330
1F
100
AcDbEntity
  8
0
  6
Continuous
 62
     7
100
AcDbLine
 10
5.587175602
 20
-12.0253323736
 30
0.0
 11
5.5716572803
 21
-12.0978021802
 31
0.0
  0
LINE
  5
8F
330
1F
100
AcDbEntity
  8
0
  6
Continuous
 62
     7
100
AcDbLine
 10
5.5716572803
 20
-12.0978021802
 30
0.0
 11
5.4656258876
 21
-12.2738221268
 31
0.0
  0
LINE
  5
90
330
1F
100
AcDbEntity
  8
0
  6
Continuous
 62
     7
100
AcDbLine
 10
5.4656258876
 20
-12.2738221268
 30
0.0
 11
5.0522269663
 21
-12.830786142
 31
0.0
  0
LINE
  5
91
330
1F
100
AcDbEntity
  8
0
  6
Continuous
 62
     7
100
AcDbLine
 10
5.0522269663
 20
-12.830786142
 30
0.0
 11
4.3496412329
 21
-13.7592834327
 31
0.0
  0
LINE
  5
92
330
1F
100
AcDbEntity
  8
0
  6
Continuous
 62
     7
100
AcDbLine
 10
4.3496412329
 20
-13.7592834327
 30
0.0
 11
4.2787801047
 21
-13.8367265442
 31
0.0
  0
LINE
  5
93
330
1F
100
AcDbEntity
  8
0
  6
Continuous
 62
     7
100
AcDbLine
 10
4.2787801047
 20
-13.8367265442
 30
0.0
 11
4.1413615661
 21
-13.8829977694
 31
0.0
  0
LINE
  5
94
330
1F
100
AcDbEntity
  8
0
  6
Continuous
 62
     7
100
AcDbLine
 10
4.1413615661
 20
-13.8829977694
 30
0.0
 11
3.5045296402
 21
-13.9112475753
 31
0.0
  0
LINE
  5
95
330
1F
100
AcDbEntity
  8
0
  6
Continuous
 62
     7
100
AcDbLine
 10
3.5045296402
 20
-13.9112475753
 30
0.0
 11
2.74081192
 21
-13.9112475753
 31
0.0
  0
LINE
  5
96
330
1F
100
AcDbEntity
  8
0
  6
Continuous
 62
     7
100
AcDbLine
 10
2.74081192
 20
-13.9112475753
 30
0.0
 11
2.6856544282
 21
-14.4957252921
 31
0.0
  0
LINE
  5
97
330
1F
100
AcDbEntity
  8
0
  6
Continuous
 62
     7
100
AcDbLine
 10
2.6856544282
 20
-14.4957252921
 30
0.0
 11
2.6389070303
 21
-15.372756166
 31
0.0
  0
LINE
  5
98
330
1F
100
AcDbEntity
  8
0
  6
Continuous
 62
     7
100
AcDbLine
 10
2.6389070303
 20
-15.372756166
 30
0.0
 11
2.6902450769
 21
-15.5318219092
 31
0.0
  0
LINE
  5
99
330
1F
100
AcDbEntity
  8
0
  6
Continuous
 62
     7
100
AcDbLine
 10
2.6902450769
 20
-15.5318219092
 30
0.0
 11
2.8013378911
 21
-15.5993927821
 31
0.0
  0
LINE
  5
9A
330
1F
100
AcDbEntity
  8
0
  6
Continuous
 62
     7
100
AcDbLine
 10
2.8013378911
 20
-15.5993927821
 30
0.0
 11
2.8768043949
 21
-15.6542117985
 31
0.0
  0
LINE
  5
9B
330
1F
100
AcDbEntity
  8
0
  6
Continuous
 62
     7
100
AcDbLine
 10
2.8768043949
 20
-15.6542117985
 30
0.0
 11
2.849752139
 21
-15.7864906172
 31
0.0
  0
LINE
  5
9C
330
1F
100
AcDbEntity
  8
0
  6
Continuous
 62
     7
100
AcDbLine
 10
2.849752139
 20
-15.7864906172
 30
0.0
 11
2.3724609019
 21
-16.5361158338
 31
0.0
  0
LINE
  5
9D
330
1F
100
AcDbEntity
  8
0
  6
Continuous
 62
     7
100
AcDbLine
 10
2.3724609019
 20
-16.5361158338
 30
0.0
 11
1.98674357
 21
-17.1021232035
 31
0.0
  0
LINE
  5
9E
330
1F
100
AcDbEntity
  8
0
  6
Continuous
 62
     7
100
AcDbLine
 10
1.98674357
 20
-17.1021232035
 30
0.0
 11
1.9162395714
 21
-17.2393279553
 31
0.0
  0
LINE
  5
9F
330
1F
100
AcDbEntity
  8
0
  6
Continuous
 62
     7
100
AcDbLine
 10
1.9162395714
 20
-17.2393279553
 30
0.0
 11
1.919126798
 21
-17.2702305832
 31
0.0
  0
LINE
  5
A0
330
1F
100
AcDbEntity
  8
0
  6
Continuous
 62
     7
100
AcDbLine
 10
1.919126798
 20
-17.2702305832
 30
0.0
 11
1.9503163568
 21
-17.2755237093
 31
0.0
  0
LINE
  5
A1
330
1F
100
AcDbEntity
  8
0
  6
Continuous
 62
     7
100
AcDbLine
 10
1.9503163568
 20
-17.2755237093
 30
0.0
 11
2.4012465247
 21
-17.0334578697
 31
0.0
  0
LINE
  5
A2
330
1F
100
AcDbEntity
  8
0
  6
Continuous
 62
     7
100
AcDbLine
 10
2.4012465247
 20
-17.0334578697
 30
0.0
 11
3.4776003546
 21
-16.3530662033
 31
0.0
  0
LINE
  5
A3
330
1F
100
AcDbEntity
  8
0
  6
Continuous
 62
     7
100
AcDbLine
 10
3.4776003546
 20
-16.3530662033
 30
0.0
 11
4.1331571592
 21
-15.9465386508
 31
0.0
  0
LINE
  5
A4
330
1F
100
AcDbEntity
  8
0
  6
Continuous
 62
     7
100
AcDbLine
 10
4.1331571592
 20
-15.9465386508
 30
0.0
 11
4.5589493346
 21
-15.718918517
 31
0.0
  0
LINE
  5
A5
330
1F
100
AcDbEntity
  8
0
  6
Continuous
 62
     7
100
AcDbLine
 10
4.5589493346
 20
-15.718918517
 30
0.0
 11
4.8986607725
 21
-15.6063591399
 31
0.0
  0
LINE
  5
A6
330
1F
100
AcDbEntity
  8
0
  6
Continuous
 62
     7
100
AcDbLine
 10
4.8986607725
 20
-15.6063591399
 30
0.0
 11
5.2959758556
 21
-15.5450145936
 31
0.0
  0
LINE
  5
A7
330
1F
100
AcDbEntity
  8
0
  6
Continuous
 62
     7
100
AcDbLine
 10
5.2959758556
 20
-15.5450145936
 30
0.0
 11
6.3501856903
 21
-15.365809935
 31
0.0
  0
LINE
  5
A8
330
1F
100
AcDbEntity
  8
0
  6
Continuous
 62
     7
100
AcDbLine
 10
6.3501856903
 20
-15.365809935
 30
0.0
 11
7.4308027388
 21
-15.0781034309
 31
0.0
  0
LINE
  5
A9
330
1F
100
AcDbEntity
  8
0
  6
Continuous
 62
     7
100
AcDbLine
 10
7.4308027388
 20
-15.0781034309
 30
0.0
 11
8.5415691295
 21
-14.6807424487
 31
0.0
  0
LINE
  5
AA
330
1F
100
AcDbEntity
  8
0
  6
Continuous
 62
     7
100
AcDbLine
 10
8.5415691295
 20
-14.6807424487
 30
0.0
 11
9.686226991
 21
-14.1725741106
 31
0.0
  0
LINE
  5
AB
330
1F
100
AcDbEntity
  8
0
  6
Continuous
 62
     7
100
AcDbLine
 10
9.686226991
 20
-14.1725741106
 30
0.0
 11
10.3866657745
 21
-13.8018260291
 31
0.0
  0
LINE
  5
AC
330
1F
100
AcDbEntity
  8
0
  6
Continuous
 62
     7
100
AcDbLine
 10
10.3866657745
 20
-13.8018260291
 30
0.0
 11
11.0657975469
 21
-13.3799043525
 31
0.0
  0
LINE
  5
AD
330
1F
100
AcDbEntity
  8
0
  6
Continuous
 62
     7
100
AcDbLine
 10
11.0657975469
 20
-13.3799043525
 30
0.0
 11
11.7216437368
 21
-12.9085478475
 31
0.0
  0
LINE
  5
AE
330
1F
100
AcDbEntity
  8
0
  6
Continuous
 62
     7
100
AcDbLine
 10
11.7216437368
 20
-12.9085478475
 30
0.0
 11
12.3522252821
 21
-12.3894945445
 31
0.0
  0
LINE
  5
AF
330
1F
100
AcDbEntity
  8
0
  6
Continuous
 62
     7
100
AcDbLine
 10
12.3522252821
 20
-12.3894945445
 30
0.0
 11
12.9555636114
 21
-11.824482474
 31
0.0
  0
LINE
  5
B0
330
1F
100
AcDbEntity
  8
0
  6
Continuous
 62
     7
100
AcDbLine
 10
12.9555636114
 20
-11.824482474
 30
0.0
 11
13.5296801534
 21
-11.2152501572
 31
0.0
  0
LINE
  5
B1
330
1F
100
AcDbEntity
  8
0
  6
Continuous
 62
     7
100
AcDbLine
 10
13.5296801534
 20
-11.2152501572
 30
0.0
 11
14.0725960915
 21
-10.5635356248
 31
0.0
  0
LINE
  5
B2
330
1F
100
AcDbEntity
  8
0
  6
Continuous
 62
     7
100
AcDbLine
 10
14.0725960915
 20
-10.5635356248
 30
0.0
 11
14.5823328543
 21
-9.871076907
 31
0.0
  0
LINE
  5
B3
330
1F
100
AcDbEntity
  8
0
  6
Continuous
 62
     7
100
AcDbLine
 10
14.5823328543
 20
-9.871076907
 30
0.0
 11
15.0514346569
 21
-9.0644555336
 31
0.0
  0
LINE
  5
B4
330
1F
100
AcDbEntity
  8
0
  6
Continuous
 62
     7
100
AcDbLine
 10
15.0514346569
 20
-9.0644555336
 30
0.0
 11
15.7483770072
 21
-7.7625948933
 31
0.0
  0
LINE
  5
B5
330
1F
100
AcDbEntity
  8
0
  6
Continuous
 62
     7
100
AcDbLine
 10
15.7483770072
 20
-7.7625948933
 30
0.0
 11
16.3808809158
 21
-6.5240038625
 31
0.0
  0
LINE
  5
B6
330
1F
100
AcDbEntity
  8
0
  6
Continuous
 62
     7
100
AcDbLine
 10
16.3808809158
 20
-6.5240038625
 30
0.0
 11
16.6566664112
 21
-5.9071915633
 31
0.0
  0
LINE
  5
B7
330
1F
100
AcDbEntity
  8
0
  6
Continuous
 62
     7
100
AcDbLine
 10
16.6566664112
 20
-5.9071915633
 30
0.0
 11
14.2910248644
 21
-7.3748155372
 31
0.0
  0
LINE
  5
B8
330
1F
100
AcDbEntity
  8
0
  6
Continuous
 62
     7
100
AcDbLine
 10
14.2910248644
 20
-7.3748155372
 30
0.0
 11
10.4253533355
 21
-9.8683926673
 31
0.0
  0
LINE
  5
B9
330
1F
100
AcDbEntity
  8
0
  6
Continuous
 62
     7
100
AcDbLine
 10
10.4253533355
 20
-9.8683926673
 30
0.0
 11
9.7770699466
 21
-10.2655563078
 31
0.0
  0
LINE
  5
BA
330
1F
100
AcDbEntity
  8
0
  6
Continuous
 62
     7
100
AcDbLine
 10
9.7770699466
 20
-10.2655563078
 30
0.0
 11
9.5733185842
 21
-10.3668060919
 31
0.0
  0
LINE
  5
BB
330
1F
100
AcDbEntity
  8
0
  6
Continuous
 62
     7
100
AcDbLine
 10
9.5733185842
 20
-10.3668060919
 30
0.0
 11
9.4907082622
 21
-10.3807417529
 31
0.0
  0
LINE
  5
BC
330
1F
100
AcDbEntity
  8
0
  6
Continuous
 62
     7
100
AcDbLine
 10
9.4907082622
 20
-10.3807417529
 30
0.0
 11
9.5789361951
 21
-10.2446918427
 31
0.0
  0
LINE
  5
BD
330
1F
100
AcDbEntity
  8
0
  6
Continuous
 62
     7
100
AcDbLine
 10
9.5789361951
 20
-10.2446918427
 30
0.0
 11
9.8498063117
 21
-9.9592802948
 31
0.0
  0
LINE
  5
BE
330
1F
100
AcDbEntity
  8
0
  6
Continuous
 62
     7
100
AcDbLine
 10
9.8498063117
 20
-9.9592802948
 30
0.0
 11
10.7794277627
 21
-9.0853114079
 31
0.0
  0
LINE
  5
BF
330
1F
100
AcDbEntity
  8
0
  6
Continuous
 62
     7
100
AcDbLine
 10
10.7794277627
 20
-9.0853114079
 30
0.0
 11
11.9594819481
 21
-8.0487116186
 31
0.0
  0
LINE
  5
C0
330
1F
100
AcDbEntity
  8
0
  6
Continuous
 62
     7
100
AcDbLine
 10
11.9594819481
 20
-8.0487116186
 30
0.0
 11
13.0698774641
 21
-7.1393574532
 31
0.0
  0
LINE
  5
C1
330
1F
100
AcDbEntity
  8
0
  6
Continuous
 62
     7
100
AcDbLine
 10
13.0698774641
 20
-7.1393574532
 30
0.0
 11
13.8854187307
 21
-6.4890392849
 31
0.0
  0
LINE
  5
C2
330
1F
100
AcDbEntity
  8
0
  6
Continuous
 62
     7
100
AcDbLine
 10
13.8854187307
 20
-6.4890392849
 30
0.0
 11
14.2274032797
 21
-6.177003791
 31
0.0
  0
LINE
  5
C3
330
1F
100
AcDbEntity
  8
0
  6
Continuous
 62
     7
100
AcDbLine
 10
14.2274032797
 20
-6.177003791
 30
0.0
 11
13.8699409082
 21
-5.5914004411
 31
0.0
  0
LINE
  5
C4
330
1F
100
AcDbEntity
  8
0
  6
Continuous
 62
     7
100
AcDbLine
 10
13.8699409082
 20
-5.5914004411
 30
0.0
 11
13.3601248651
 21
-4.8759128814
 31
0.0
  0
LINE
  5
C5
330
1F
100
AcDbEntity
  8
0
  6
Continuous
 62
     7
100
AcDbLine
 10
13.3601248651
 20
-4.8759128814
 30
0.0
 11
13.2385128063
 21
-4.9171928838
 31
0.0
  0
LINE
  5
C6
330
1F
100
AcDbEntity
  8
0
  6
Continuous
 62
     7
100
AcDbLine
 10
13.2385128063
 20
-4.9171928838
 30
0.0
 11
12.9537178284
 21
-5.0839328623
 31
0.0
  0
LINE
  5
C7
330
1F
100
AcDbEntity
  8
0
  6
Continuous
 62
     7
100
AcDbLine
 10
12.9537178284
 20
-5.0839328623
 30
0.0
 11
12.0646621207
 21
-5.6872547464
 31
0.0
  0
LINE
  5
C8
330
1F
100
AcDbEntity
  8
0
  6
Continuous
 62
     7
100
AcDbLine
 10
12.0646621207
 20
-5.6872547464
 30
0.0
 11
10.1724258489
 21
-6.9822845173
 31
0.0
  0
LINE
  5
C9
330
1F
100
AcDbEntity
  8
0
  6
Continuous
 62
     7
100
AcDbLine
 10
10.1724258489
 20
-6.9822845173
 30
0.0
 11
9.820549916
 21
-7.1901812823
 31
0.0
  0
LINE
  5
CA
330
1F
100
AcDbEntity
  8
0
  6
Continuous
 62
     7
100
AcDbLine
 10
9.820549916
 20
-7.1901812823
 30
0.0
 11
9.7730070151
 21
-7.193650716
 31
0.0
  0
LINE
  5
CB
330
1F
100
AcDbEntity
  8
0
  6
Continuous
 62
     7
100
AcDbLine
 10
9.7730070151
 20
-7.193650716
 30
0.0
 11
9.8300844157
 21
-7.1073085745
 31
0.0
  0
LINE
  5
CC
330
1F
100
AcDbEntity
  8
0
  6
Continuous
 62
     7
100
AcDbLine
 10
9.8300844157
 20
-7.1073085745
 30
0.0
 11
11.3899582637
 21
-5.5214361867
 31
0.0
  0
LINE
  5
CD
330
1F
100
AcDbEntity
  8
0
  6
Continuous
 62
     7
100
AcDbLine
 10
11.3899582637
 20
-5.5214361867
 30
0.0
 11
13.8081378615
 21
-3.0442892245
 31
0.0
  0
LINE
  5
CE
330
1F
100
AcDbEntity
  8
0
  6
Continuous
 62
     7
100
AcDbLine
 10
13.8081378615
 20
-3.0442892245
 30
0.0
 11
14.9618538045
 21
-1.7836354424
 31
0.0
  0
LINE
  5
CF
330
1F
100
AcDbEntity
  8
0
  6
Continuous
 62
     7
100
AcDbLine
 10
14.9618538045
 20
-1.7836354424
 30
0.0
 11
17.4120822809
 21
0.8622200062
 31
0.0
  0
LINE
  5
D0
330
1F
100
AcDbEntity
  8
0
  6
Continuous
 62
     7
100
AcDbLine
 10
17.4120822809
 20
0.8622200062
 30
0.0
 11
18.2585686382
 21
1.8452358827
 31
0.0
  0
LINE
  5
D1
330
1F
100
AcDbEntity
  8
0
  6
Continuous
 62
     7
100
AcDbLine
 10
18.2585686382
 20
1.8452358827
 30
0.0
 11
18.0550838344
 21
1.7612333692
 31
0.0
  0
LINE
  5
D2
330
1F
100
AcDbEntity
  8
0
  6
Continuous
 62
     7
100
AcDbLine
 10
18.0550838344
 20
1.7612333692
 30
0.0
 11
17.5658541617
 21
1.4488299459
 31
0.0
  0
LINE
  5
D3
330
1F
100
AcDbEntity
  8
0
  6
Continuous
 62
     7
100
AcDbLine
 10
-1.8049175986
 20
18.4189204715
 30
0.0
 11
-0.9173770528
 21
17.7986812014
 31
0.0
  0
LINE
  5
D4
330
1F
100
AcDbEntity
  8
0
  6
Continuous
 62
     7
100
AcDbLine
 10
-0.9173770528
 20
17.7986812014
 30
0.0
 11
1.2373977857
 21
16.29661644
 31
0.0
  0
LINE
  5
D5
330
1F
100
AcDbEntity
  8
0
  6
Continuous
 62
     7
100
AcDbLine
 10
1.2373977857
 20
16.29661644
 30
0.0
 11
3.8554256022
 21
14.4530435477
 31
0.0
  0
LINE
  5
D6
330
1F
100
AcDbEntity
  8
0
  6
Continuous
 62
     7
100
AcDbLine
 10
3.8554256022
 20
14.4530435477
 30
0.0
 11
5.1766053553
 21
13.4768357138
 31
0.0
  0
LINE
  5
D7
330
1F
100
AcDbEntity
  8
0
  6
Continuous
 62
     7
100
AcDbLine
 10
5.1766053553
 20
13.4768357138
 30
0.0
 11
4.8742585036
 21
13.558191787
 31
0.0
  0
LINE
  5
D8
330
1F
100
AcDbEntity
  8
0
  6
Continuous
 62
     7
100
AcDbLine
 10
4.8742585036
 20
13.558191787
 30
0.0
 11
4.1935676338
 21
13.8319383305
 31
0.0
  0
LINE
  5
D9
330
1F
100
AcDbEntity
  8
0
  6
Continuous
 62
     7
100
AcDbLine
 10
4.1935676338
 20
13.8319383305
 30
0.0
 11
2.5245478798
 21
14.6047480043
 31
0.0
  0
LINE
  5
DA
330
1F
100
AcDbEntity
  8
0
  6
Continuous
 62
     7
100
AcDbLine
 10
2.5245478798
 20
14.6047480043
 30
0.0
 11
0.5762884145
 21
15.6624363544
 31
0.0
  0
LINE
  5
DB
330
1F
100
AcDbEntity
  8
0
  6
Continuous
 62
     7
100
AcDbLine
 10
0.5762884145
 20
15.6624363544
 30
0.0
 11
-0.4796682869
 21
16.2381686929
 31
0.0
  0
LINE
  5
DC
330
1F
100
AcDbEntity
  8
0
  6
Continuous
 62
     7
100
AcDbLine
 10
-0.4796682869
 20
16.2381686929
 30
0.0
 11
-0.5512839279
 21
16.1948013849
 31
0.0
  0
LINE
  5
DD
330
1F
100
AcDbEntity
  8
0
  6
Continuous
 62
     7
100
AcDbLine
 10
-0.5512839279
 20
16.1948013849
 30
0.0
 11
-0.6695652321
 21
16.0607931266
 31
0.0
  0
LINE
  5
DE
330
1F
100
AcDbEntity
  8
0
  6
Continuous
 62
     7
100
AcDbLine
 10
-0.6695652321
 20
16.0607931266
 30
0.0
 11
-0.9740607519
 21
15.6314591098
 31
0.0
  0
LINE
  5
DF
330
1F
100
AcDbEntity
  8
0
  6
Continuous
 62
     7
100
AcDbLine
 10
-0.9740607519
 20
15.6314591098
 30
0.0
 11
-1.2490237448
 21
15.1713748894
 31
0.0
  0
LINE
  5
E0
330
1F
100
AcDbEntity
  8
0
  6
Continuous
 62
     7
100
AcDbLine
 10
-1.2490237448
 20
15.1713748894
 30
0.0
 11
-1.3503238461
 21
14.901749449
 31
0.0
  0
LINE
  5
E1
330
1F
100
AcDbEntity
  8
0
  6
Continuous
 62
     7
100
AcDbLine
 10
-1.3503238461
 20
14.901749449
 30
0.0
 11
-0.812452639
 21
14.5091317854
 31
0.0
  0
LINE
  5
E2
330
1F
100
AcDbEntity
  8
0
  6
Continuous
 62
     7
100
AcDbLine
 10
-0.812452639
 20
14.5091317854
 30
0.0
 11
0.4422482477
 21
13.6807534912
 31
0.0
  0
LINE
  5
E3
330
1F
100
AcDbEntity
  8
0
  6
Continuous
 62
     7
100
AcDbLine
 10
0.4422482477
 20
13.6807534912
 30
0.0
 11
1.6992543994
 21
12.8451665803
 31
0.0
  0
LINE
  5
E4
330
1F
100
AcDbEntity
  8
0
  6
Continuous
 62
     7
100
AcDbLine
 10
1.6992543994
 20
12.8451665803
 30
0.0
 11
2.242872815
 21
12.4350797594
 31
0.0
  0
LINE
  5
E5
330
1F
100
AcDbEntity
  8
0
  6
Continuous
 62
     7
100
AcDbLine
 10
2.242872815
 20
12.4350797594
 30
0.0
 11
2.1690365891
 21
12.4351799029
 31
0.0
  0
LINE
  5
E6
330
1F
100
AcDbEntity
  8
0
  6
Continuous
 62
     7
100
AcDbLine
 10
2.1690365891
 20
12.4351799029
 30
0.0
 11
1.9416935683
 21
12.5145902951
 31
0.0
  0
LINE
  5
E7
330
1F
100
AcDbEntity
  8
0
  6
Continuous
 62
     7
100
AcDbLine
 10
1.9416935683
 20
12.5145902951
 30
0.0
 11
1.1676068189
 21
12.8560768264
 31
0.0
  0
LINE
  5
E8
330
1F
100
AcDbEntity
  8
0
  6
Continuous
 62
     7
100
AcDbLine
 10
1.1676068189
 20
12.8560768264
 30
0.0
 11
-0.2781046191
 21
13.474123002
 31
0.0
  0
LINE
  5
E9
330
1F
100
AcDbEntity
  8
0
  6
Continuous
 62
     7
100
AcDbLine
 10
-0.2781046191
 20
13.474123002
 30
0.0
 11
-2.5614051024
 21
14.3885236165
 31
0.0
  0
LINE
  5
EA
330
1F
100
AcDbEntity
  8
0
  6
Continuous
 62
     7
100
AcDbLine
 10
-2.5614051024
 20
14.3885236165
 30
0.0
 11
-5.0113468934
 21
15.335444128
 31
0.0
  0
LINE
  5
EB
330
1F
100
AcDbEntity
  8
0
  6
Continuous
 62
     7
100
AcDbLine
 10
-5.0113468934
 20
15.335444128
 30
0.0
 11
-6.9569815179
 21
16.0510492582
 31
0.0
  0
LINE
  5
EC
330
1F
100
AcDbEntity
  8
0
  6
Continuous
 62
     7
100
AcDbLine
 10
-6.9569815179
 20
16.0510492582
 30
0.0
 11
-8.7178616172
 21
16.6921564297
 31
0.0
  0
LINE
  5
ED
330
1F
100
AcDbEntity
  8
0
  6
Continuous
 62
     7
100
AcDbLine
 10
-8.7178616172
 20
16.6921564297
 30
0.0
 11
-9.5821961063
 21
17.0015400833
 31
0.0
  0
LINE
  5
EE
330
1F
100
AcDbEntity
  8
0
  6
Continuous
 62
     7
100
AcDbLine
 10
-9.5821961063
 20
17.0015400833
 30
0.0
 11
-9.5316241087
 21
16.9386141036
 31
0.0
  0
LINE
  5
EF
330
1F
100
AcDbEntity
  8
0
  6
Continuous
 62
     7
100
AcDbLine
 10
-9.5316241087
 20
16.9386141036
 30
0.0
 11
-9.1682667679
 21
16.6834110513
 31
0.0
  0
LINE
  5
F0
330
1F
100
AcDbEntity
  8
0
  6
Continuous
 62
     7
100
AcDbLine
 10
-9.1682667679
 20
16.6834110513
 30
0.0
 11
-6.9136868632
 21
15.1976250153
 31
0.0
  0
LINE
  5
F1
330
1F
100
AcDbEntity
  8
0
  6
Continuous
 62
     7
100
AcDbLine
 10
-6.9136868632
 20
15.1976250153
 30
0.0
 11
-4.7332814142
 21
13.7372096582
 31
0.0
  0
LINE
  5
F2
330
1F
100
AcDbEntity
  8
0
  6
Continuous
 62
     7
100
AcDbLine
 10
-4.7332814142
 20
13.7372096582
 30
0.0
 11
-4.6576659223
 21
13.6547117523
 31
0.0
  0
LINE
  5
F3
330
1F
100
AcDbEntity
  8
0
  6
Continuous
 62
     7
100
AcDbLine
 10
-4.6576659223
 20
13.6547117523
 30
0.0
 11
-4.6364637182
 21
13.5574718826
 31
0.0
  0
LINE
  5
F4
330
1F
100
AcDbEntity
  8
0
  6
Continuous
 62
     7
100
AcDbLine
 10
-4.6364637182
 20
13.5574718826
 30
0.0
 11
-4.767657403
 21
13.1386178383
 31
0.0
  0
LINE
  5
F5
330
1F
100
AcDbEntity
  8
0
  6
Continuous
 62
     7
100
AcDbLine
 10
-4.767657403
 20
13.1386178383
 30
0.0
 11
-4.9131274333
 21
12.643500069
 31
0.0
  0
LINE
  5
F6
330
1F
100
AcDbEntity
  8
0
  6
Continuous
 62
     7
100
AcDbLine
 10
-4.9131274333
 20
12.643500069
 30
0.0
 11
-4.2559145786
 21
12.2546274792
 31
0.0
  0
LINE
  5
F7
330
1F
100
AcDbEntity
  8
0
  6
Continuous
 62
     7
100
AcDbLine
 10
-4.2559145786
 20
12.2546274792
 30
0.0
 11
-3.5370663194
 21
11.7943783165
 31
0.0
  0
LINE
  5
F8
330
1F
100
AcDbEntity
  8
0
  6
Continuous
 62
     7
100
AcDbLine
 10
-3.5370663194
 20
11.7943783165
 30
0.0
 11
-2.7142135925
 21
11.2021345662
 31
0.0
  0
LINE
  5
F9
330
1F
100
AcDbEntity
  8
0
  6
Continuous
 62
     7
100
AcDbLine
 10
-2.7142135925
 20
11.2021345662
 30
0.0
 11
-1.87275503
 21
10.542156228
 31
0.0
  0
LINE
  5
FA
330
1F
100
AcDbEntity
  8
0
  6
Continuous
 62
     7
100
AcDbLine
 10
-1.87275503
 20
10.542156228
 30
0.0
 11
-1.098089019
 21
9.878703547
 31
0.0
  0
LINE
  5
FB
330
1F
100
AcDbEntity
  8
0
  6
Continuous
 62
     7
100
AcDbLine
 10
-1.098089019
 20
9.878703547
 30
0.0
 11
0.9586450469
 21
8.1138292422
 31
0.0
  0
LINE
  5
FC
330
1F
100
AcDbEntity
  8
0
  6
Continuous
 62
     7
100
AcDbLine
 10
0.9586450469
 20
8.1138292422
 30
0.0
 11
1.8790704736
 21
7.3792935464
 31
0.0
  0
LINE
  5
FD
330
1F
100
AcDbEntity
  8
0
  6
Continuous
 62
     7
100
AcDbLine
 10
1.8790704736
 20
7.3792935464
 30
0.0
 11
2.5245478798
 21
6.9097293162
 31
0.0
  0
LINE
  5
FE
330
1F
100
AcDbEntity
  8
0
  6
Continuous
 62
     7
100
AcDbLine
 10
2.5245478798
 20
6.9097293162
 30
0.0
 11
3.5594552923
 21
6.3131519032
 31
0.0
  0
LINE
  5
FF
330
1F
100
AcDbEntity
  8
0
  6
Continuous
 62
     7
100
AcDbLine
 10
3.5594552923
 20
6.3131519032
 30
0.0
 11
4.6119779047
 21
5.8419205776
 31
0.0
  0
LINE
  5
100
330
1F
100
AcDbEntity
  8
0
  6
Continuous
 62
     7
100
AcDbLine
 10
4.6119779047
 20
5.8419205776
 30
0.0
 11
5.6378422082
 21
5.5130585143
 31
0.0
  0
LINE
  5
101
330
1F
100
AcDbEntity
  8
0
  6
Continuous
 62
     7
100
AcDbLine
 10
5.6378422082
 20
5.5130585143
 30
0.0
 11
6.126941547
 21
5.407335652
 31
0.0
  0
LINE
  5
102
330
1F
100
AcDbEntity
  8
0
  6
Continuous
 62
     7
100
AcDbLine
 10
6.126941547
 20
5.407335652
 30
0.0
 11
6.5927734667
 21
5.343588397
 31
0.0
  0
LINE
  5
103
330
1F
100
AcDbEntity
  8
0
  6
Continuous
 62
     7
100
AcDbLine
 10
6.5927734667
 20
5.343588397
 30
0.0
 11
7.1750865612
 21
5.2894701399
 31
0.0
  0
LINE
  5
104
330
1F
100
AcDbEntity
  8
0
  6
Continuous
 62
     7
100
AcDbLine
 10
7.1750865612
 20
5.2894701399
 30
0.0
 11
7.3309472203
 21
5.8654621643
 31
0.0
  0
LINE
  5
105
330
1F
100
AcDbEntity
  8
0
  6
Continuous
 62
     7
100
AcDbLine
 10
7.3309472203
 20
5.8654621643
 30
0.0
 11
7.4406235434
 21
6.4231730834
 31
0.0
  0
LINE
  5
106
330
1F
100
AcDbEntity
  8
0
  6
Continuous
 62
     7
100
AcDbLine
 10
7.4406235434
 20
6.4231730834
 30
0.0
 11
7.4305885714
 21
6.6482118209
 31
0.0
  0
LINE
  5
107
330
1F
100
AcDbEntity
  8
0
  6
Continuous
 62
     7
100
AcDbLine
 10
7.4305885714
 20
6.6482118209
 30
0.0
 11
7.3809959188
 21
6.9143184922
 31
0.0
  0
LINE
  5
108
330
1F
100
AcDbEntity
  8
0
  6
Continuous
 62
     7
100
AcDbLine
 10
7.3809959188
 20
6.9143184922
 30
0.0
 11
7.282576417
 21
7.262905397
 31
0.0
  0
LINE
  5
109
330
1F
100
AcDbEntity
  8
0
  6
Continuous
 62
     7
100
AcDbLine
 10
7.282576417
 20
7.262905397
 30
0.0
 11
7.1944824998
 21
7.4370582066
 31
0.0
  0
LINE
  5
10A
330
1F
100
AcDbEntity
  8
0
  6
Continuous
 62
     7
100
AcDbLine
 10
7.1944824998
 20
7.4370582066
 30
0.0
 11
7.1365624699
 21
7.4968711458
 31
0.0
  0
LINE
  5
10B
330
1F
100
AcDbEntity
  8
0
  6
Continuous
 62
     7
100
AcDbLine
 10
7.1365624699
 20
7.4968711458
 30
0.0
 11
7.116032553
 21
7.5670828137
 31
0.0
  0
LINE
  5
10C
330
1F
100
AcDbEntity
  8
0
  6
Continuous
 62
     7
100
AcDbLine
 10
7.116032553
 20
7.5670828137
 30
0.0
 11
7.133429057
 21
7.6254912889
 31
0.0
  0
LINE
  5
10D
330
1F
100
AcDbEntity
  8
0
  6
Continuous
 62
     7
100
AcDbLine
 10
7.133429057
 20
7.6254912889
 30
0.0
 11
7.1892870627
 21
7.64989465
 31
0.0
  0
LINE
  5
10E
330
1F
100
AcDbEntity
  8
0
  6
Continuous
 62
     7
100
AcDbLine
 10
7.1892870627
 20
7.64989465
 30
0.0
 11
7.9469436442
 21
7.2033536164
 31
0.0
  0
LINE
  5
10F
330
1F
100
AcDbEntity
  8
0
  6
Continuous
 62
     7
100
AcDbLine
 10
7.9469436442
 20
7.2033536164
 30
0.0
 11
8.7116910265
 21
6.7318125331
 31
0.0
  0
LINE
  5
110
330
1F
100
AcDbEntity
  8
0
  6
Continuous
 62
     7
100
AcDbLine
 10
8.7116910265
 20
6.7318125331
 30
0.0
 11
9.3239625034
 21
6.4301760132
 31
0.0
  0
LINE
  5
111
330
1F
100
AcDbEntity
  8
0
  6
Continuous
 62
     7
100
AcDbLine
 10
9.3239625034
 20
6.4301760132
 30
0.0
 11
9.8545210229
 21
6.2698206764
 31
0.0
  0
LINE
  5
112
330
1F
100
AcDbEntity
  8
0
  6
Continuous
 62
     7
100
AcDbLine
 10
9.8545210229
 20
6.2698206764
 30
0.0
 11
10.3741285517
 21
6.222123633
 31
0.0
  0
LINE
  5
113
330
1F
100
AcDbEntity
  8
0
  6
Continuous
 62
     7
100
AcDbLine
 10
10.3741285517
 20
6.222123633
 30
0.0
 11
10.7290485537
 21
6.2329187632
 31
0.0
  0
LINE
  5
114
330
1F
100
AcDbEntity
  8
0
  6
Continuous
 62
     7
100
AcDbLine
 10
10.7290485537
 20
6.2329187632
 30
0.0
 11
11.0189699973
 21
6.2831581762
 31
0.0
  0
LINE
  5
115
330
1F
100
AcDbEntity
  8
0
  6
Continuous
 62
     7
100
AcDbLine
 10
11.0189699973
 20
6.2831581762
 30
0.0
 11
11.3353389084
 21
6.3976737887
 31
0.0
  0
LINE
  5
116
330
1F
100
AcDbEntity
  8
0
  6
Continuous
 62
     7
100
AcDbLine
 10
11.3353389084
 20
6.3976737887
 30
0.0
 11
11.7696018038
 21
6.601298008
 31
0.0
  0
LINE
  5
117
330
1F
100
AcDbEntity
  8
0
  6
Continuous
 62
     7
100
AcDbLine
 10
11.7696018038
 20
6.601298008
 30
0.0
 11
12.5457883768
 21
6.9814252194
 31
0.0
  0
LINE
  5
118
330
1F
100
AcDbEntity
  8
0
  6
Continuous
 62
     7
100
AcDbLine
 10
12.5457883768
 20
6.9814252194
 30
0.0
 11
11.4765837648
 21
7.8344164888
 31
0.0
  0
LINE
  5
119
330
1F
100
AcDbEntity
  8
0
  6
Continuous
 62
     7
100
AcDbLine
 10
11.4765837648
 20
7.8344164888
 30
0.0
 11
9.258425428
 21
9.5636914827
 31
0.0
  0
LINE
  5
11A
330
1F
100
AcDbEntity
  8
0
  6
Continuous
 62
     7
100
AcDbLine
 10
9.258425428
 20
9.5636914827
 30
0.0
 11
8.4470509182
 21
10.2004802094
 31
0.0
  0
LINE
  5
11B
330
1F
100
AcDbEntity
  8
0
  6
Continuous
 62
     7
100
AcDbLine
 10
8.4470509182
 20
10.2004802094
 30
0.0
 11
8.1095583469
 21
10.5009341518
 31
0.0
  0
LINE
  5
11C
330
1F
100
AcDbEntity
  8
0
  6
Continuous
 62
     7
100
AcDbLine
 10
8.1095583469
 20
10.5009341518
 30
0.0
 11
8.4518676261
 21
10.4510047419
 31
0.0
  0
LINE
  5
11D
330
1F
100
AcDbEntity
  8
0
  6
Continuous
 62
     7
100
AcDbLine
 10
8.4518676261
 20
10.4510047419
 30
0.0
 11
9.2748771955
 21
10.2454093147
 31
0.0
  0
LINE
  5
11E
330
1F
100
AcDbEntity
  8
0
  6
Continuous
 62
     7
100
AcDbLine
 10
9.2748771955
 20
10.2454093147
 30
0.0
 11
10.4401962896
 21
9.9290119314
 31
0.0
  0
LINE
  5
11F
330
1F
100
AcDbEntity
  8
0
  6
Continuous
 62
     7
100
AcDbLine
 10
10.4401962896
 20
9.9290119314
 30
0.0
 11
10.6628173461
 21
9.3136215233
 31
0.0
  0
LINE
  5
120
330
1F
100
AcDbEntity
  8
0
  6
Continuous
 62
     7
100
AcDbLine
 10
10.6628173461
 20
9.3136215233
 30
0.0
 11
10.9395566597
 21
8.6441997472
 31
0.0
  0
LINE
  5
121
330
1F
100
AcDbEntity
  8
0
  6
Continuous
 62
     7
100
AcDbLine
 10
10.9395566597
 20
8.6441997472
 30
0.0
 11
11.1646457145
 21
8.6602943852
 31
0.0
  0
LINE
  5
122
330
1F
100
AcDbEntity
  8
0
  6
Continuous
 62
     7
100
AcDbLine
 10
11.1646457145
 20
8.6602943852
 30
0.0
 11
11.6297601842
 21
8.775036057
 31
0.0
  0
LINE
  5
123
330
1F
100
AcDbEntity
  8
0
  6
Continuous
 62
     7
100
AcDbLine
 10
11.6297601842
 20
8.775036057
 30
0.0
 11
12.4210132057
 21
9.0045844448
 31
0.0
  0
LINE
  5
124
330
1F
100
AcDbEntity
  8
0
  6
Continuous
 62
     7
100
AcDbLine
 10
12.4210132057
 20
9.0045844448
 30
0.0
 11
12.5260245088
 21
9.0785858585
 31
0.0
  0
LINE
  5
125
330
1F
100
AcDbEntity
  8
0
  6
Continuous
 62
     7
100
AcDbLine
 10
12.5260245088
 20
9.0785858585
 30
0.0
 11
12.5233618688
 21
9.2155159519
 31
0.0
  0
LINE
  5
126
330
1F
100
AcDbEntity
  8
0
  6
Continuous
 62
     7
100
AcDbLine
 10
12.5233618688
 20
9.2155159519
 30
0.0
 11
12.5087431208
 21
9.334918471
 31
0.0
  0
LINE
  5
127
330
1F
100
AcDbEntity
  8
0
  6
Continuous
 62
     7
100
AcDbLine
 10
12.5087431208
 20
9.334918471
 30
0.0
 11
12.6290331866
 21
9.3694176756
 31
0.0
  0
LINE
  5
128
330
1F
100
AcDbEntity
  8
0
  6
Continuous
 62
     7
100
AcDbLine
 10
12.6290331866
 20
9.3694176756
 30
0.0
 11
13.6482435899
 21
9.1678918071
 31
0.0
  0
LINE
  5
129
330
1F
100
AcDbEntity
  8
0
  6
Continuous
 62
     7
100
AcDbLine
 10
13.6482435899
 20
9.1678918071
 30
0.0
 11
14.6234988328
 21
8.9829369947
 31
0.0
  0
LINE
  5
12A
330
1F
100
AcDbEntity
  8
0
  6
Continuous
 62
     7
100
AcDbLine
 10
14.6234988328
 20
8.9829369947
 30
0.0
 11
14.4116149803
 21
9.1655538972
 31
0.0
  0
LINE
  5
12B
330
1F
100
AcDbEntity
  8
0
  6
Continuous
 62
     7
100
AcDbLine
 10
14.4116149803
 20
9.1655538972
 30
0.0
 11
12.9744920784
 21
10.1439265988
 31
0.0
  0
LINE
  5
12C
330
1F
100
AcDbEntity
  8
0
  6
Continuous
 62
     7
100
AcDbLine
 10
12.9744920784
 20
10.1439265988
 30
0.0
 11
12.3339909226
 21
10.5945752357
 31
0.0
  0
LINE
  5
12D
330
1F
100
AcDbEntity
  8
0
  6
Continuous
 62
     7
100
AcDbLine
 10
12.3339909226
 20
10.5945752357
 30
0.0
 11
11.9423474494
 21
10.9038776455
 31
0.0
  0
LINE
  5
12E
330
1F
100
AcDbEntity
  8
0
  6
Continuous
 62
     7
100
AcDbLine
 10
11.9423474494
 20
10.9038776455
 30
0.0
 11
11.7126044199
 21
11.1494720722
 31
0.0
  0
LINE
  5
12F
330
1F
100
AcDbEntity
  8
0
  6
Continuous
 62
     7
100
AcDbLine
 10
11.7126044199
 20
11.1494720722
 30
0.0
 11
11.5578043497
 21
11.4089962692
 31
0.0
  0
LINE
  5
130
330
1F
100
AcDbEntity
  8
0
  6
Continuous
 62
     7
100
AcDbLine
 10
11.5578043497
 20
11.4089962692
 30
0.0
 11
11.2241449688
 21
12.0029667593
 31
0.0
  0
LINE
  5
131
330
1F
100
AcDbEntity
  8
0
  6
Continuous
 62
     7
100
AcDbLine
 10
11.2241449688
 20
12.0029667593
 30
0.0
 11
10.8086688055
 21
12.6239539151
 31
0.0
  0
LINE
  5
132
330
1F
100
AcDbEntity
  8
0
  6
Continuous
 62
     7
100
AcDbLine
 10
10.8086688055
 20
12.6239539151
 30
0.0
 11
10.3268423913
 21
13.254781892
 31
0.0
  0
LINE
  5
133
330
1F
100
AcDbEntity
  8
0
  6
Continuous
 62
     7
100
AcDbLine
 10
10.3268423913
 20
13.254781892
 30
0.0
 11
9.7941317674
 21
13.8782745999
 31
0.0
  0
LINE
  5
134
330
1F
100
AcDbEntity
  8
0
  6
Continuous
 62
     7
100
AcDbLine
 10
9.7941317674
 20
13.8782745999
 30
0.0
 11
9.2260034655
 21
14.4772554579
 31
0.0
  0
LINE
  5
135
330
1F
100
AcDbEntity
  8
0
  6
Continuous
 62
     7
100
AcDbLine
 10
9.2260034655
 20
14.4772554579
 30
0.0
 11
8.6379235266
 21
15.0345488668
 31
0.0
  0
LINE
  5
136
330
1F
100
AcDbEntity
  8
0
  6
Continuous
 62
     7
100
AcDbLine
 10
8.6379235266
 20
15.0345488668
 30
0.0
 11
8.0453587278
 21
15.532978491
 31
0.0
  0
LINE
  5
137
330
1F
100
AcDbEntity
  8
0
  6
Continuous
 62
     7
100
AcDbLine
 10
8.0453587278
 20
15.532978491
 30
0.0
 11
7.4637753557
 21
15.9553679951
 31
0.0
  0
LINE
  5
138
330
1F
100
AcDbEntity
  8
0
  6
Continuous
 62
     7
100
AcDbLine
 10
7.4637753557
 20
15.9553679951
 30
0.0
 11
6.3283351181
 21
16.6413922449
 31
0.0
  0
LINE
  5
139
330
1F
100
AcDbEntity
  8
0
  6
Continuous
 62
     7
100
AcDbLine
 10
6.3283351181
 20
16.6413922449
 30
0.0
 11
5.1614304179
 21
17.2192796331
 31
0.0
  0
LINE
  5
13A
330
1F
100
AcDbEntity
  8
0
  6
Continuous
 62
     7
100
AcDbLine
 10
5.1614304179
 20
17.2192796331
 30
0.0
 11
3.9974806886
 21
17.6737938598
 31
0.0
  0
LINE
  5
13B
330
1F
100
AcDbEntity
  8
0
  6
Continuous
 62
     7
100
AcDbLine
 10
3.9974806886
 20
17.6737938598
 30
0.0
 11
2.870905118
 21
17.989697398
 31
0.0
  0
LINE
  5
13C
330
1F
100
AcDbEntity
  8
0
  6
Continuous
 62
     7
100
AcDbLine
 10
2.870905118
 20
17.989697398
 30
0.0
 11
1.9260967026
 21
18.1130924045
 31
0.0
  0
LINE
  5
13D
330
1F
100
AcDbEntity
  8
0
  6
Continuous
 62
     7
100
AcDbLine
 10
1.9260967026
 20
18.1130924045
 30
0.0
 11
0.3425838243
 21
18.2706795578
 31
0.0
  0
LINE
  5
13E
330
1F
100
AcDbEntity
  8
0
  6
Continuous
 62
     7
100
AcDbLine
 10
0.3425838243
 20
18.2706795578
 30
0.0
 11
-1.1457239636
 21
18.3950813996
 31
0.0
  0
LINE
  5
13F
330
1F
100
AcDbEntity
  8
0
  6
Continuous
 62
     7
100
AcDbLine
 10
-1.1457239636
 20
18.3950813996
 30
0.0
 11
-1.8049175986
 21
18.4189204715
 31
0.0
  0
LINE
  5
140
330
1F
100
AcDbEntity
  8
0
  6
Continuous
 62
     7
100
AcDbLine
 10
-14.2012272417
 20
5.7716533808
 30
0.0
 11
-14.3206663329
 21
4.5207842119
 31
0.0
  0
LINE
  5
141
330
1F
100
AcDbEntity
  8
0
  6
Continuous
 62
     7
100
AcDbLine
 10
-14.3206663329
 20
4.5207842119
 30
0.0
 11
-14.3838642711
 21
4.1662144668
 31
0.0
  0
LINE
  5
142
330
1F
100
AcDbEntity
  8
0
  6
Continuous
 62
     7
100
AcDbLine
 10
-14.3838642711
 20
4.1662144668
 30
0.0
 11
-14.4527691639
 21
3.9679113549
 31
0.0
  0
LINE
  5
143
330
1F
100
AcDbEntity
  8
0
  6
Continuous
 62
     7
100
AcDbLine
 10
-14.4527691639
 20
3.9679113549
 30
0.0
 11
-15.1460911289
 21
2.7050944233
 31
0.0
  0
LINE
  5
144
330
1F
100
AcDbEntity
  8
0
  6
Continuous
 62
     7
100
AcDbLine
 10
-15.1460911289
 20
2.7050944233
 30
0.0
 11
-15.6336848783
 21
1.6572432125
 31
0.0
  0
LINE
  5
145
330
1F
100
AcDbEntity
  8
0
  6
Continuous
 62
     7
100
AcDbLine
 10
-15.6336848783
 20
1.6572432125
 30
0.0
 11
-15.9802411764
 21
0.6662327887
 31
0.0
  0
LINE
  5
146
330
1F
100
AcDbEntity
  8
0
  6
Continuous
 62
     7
100
AcDbLine
 10
-15.9802411764
 20
0.6662327887
 30
0.0
 11
-16.2504498056
 21
-0.4260630094
 31
0.0
  0
LINE
  5
147
330
1F
100
AcDbEntity
  8
0
  6
Continuous
 62
     7
100
AcDbLine
 10
-16.2504498056
 20
-0.4260630094
 30
0.0
 11
-16.3769256987
 21
-1.074032468
 31
0.0
  0
LINE
  5
148
330
1F
100
AcDbEntity
  8
0
  6
Continuous
 62
     7
100
AcDbLine
 10
-16.3769256987
 20
-1.074032468
 30
0.0
 11
-16.4481439565
 21
-1.6404347665
 31
0.0
  0
LINE
  5
149
330
1F
100
AcDbEntity
  8
0
  6
Continuous
 62
     7
100
AcDbLine
 10
-16.4481439565
 20
-1.6404347665
 30
0.0
 11
-16.4864056619
 21
-3.271474346
 31
0.0
  0
LINE
  5
14A
330
1F
100
AcDbEntity
  8
0
  6
Continuous
 62
     7
100
AcDbLine
 10
-16.4864056619
 20
-3.271474346
 30
0.0
 11
-16.4507633973
 21
-4.8538289464
 31
0.0
  0
LINE
  5
14B
330
1F
100
AcDbEntity
  8
0
  6
Continuous
 62
     7
100
AcDbLine
 10
-16.4507633973
 20
-4.8538289464
 30
0.0
 11
-16.3912209438
 21
-5.3795398313
 31
0.0
  0
LINE
  5
14C
330
1F
100
AcDbEntity
  8
0
  6
Continuous
 62
     7
100
AcDbLine
 10
-16.3912209438
 20
-5.3795398313
 30
0.0
 11
-16.2903675613
 21
-5.9100237341
 31
0.0
  0
LINE
  5
14D
330
1F
100
AcDbEntity
  8
0
  6
Continuous
 62
     7
100
AcDbLine
 10
-16.2903675613
 20
-5.9100237341
 30
0.0
 11
-16.088086689
 21
-6.7606054223
 31
0.0
  0
LINE
  5
14E
330
1F
100
AcDbEntity
  8
0
  6
Continuous
 62
     7
100
AcDbLine
 10
-16.088086689
 20
-6.7606054223
 30
0.0
 11
-15.8461425925
 21
-7.5137984981
 31
0.0
  0
LINE
  5
14F
330
1F
100
AcDbEntity
  8
0
  6
Continuous
 62
     7
100
AcDbLine
 10
-15.8461425925
 20
-7.5137984981
 30
0.0
 11
-15.4810361761
 21
-8.3943589409
 31
0.0
  0
LINE
  5
150
330
1F
100
AcDbEntity
  8
0
  6
Continuous
 62
     7
100
AcDbLine
 10
-15.4810361761
 20
-8.3943589409
 30
0.0
 11
-14.9092680982
 21
-9.6270429754
 31
0.0
  0
LINE
  5
151
330
1F
100
AcDbEntity
  8
0
  6
Continuous
 62
     7
100
AcDbLine
 10
-14.9092680982
 20
-9.6270429754
 30
0.0
 11
-14.1984239589
 21
-11.0648693366
 31
0.0
  0
LINE
  5
152
330
1F
100
AcDbEntity
  8
0
  6
Continuous
 62
     7
100
AcDbLine
 10
-14.1984239589
 20
-11.0648693366
 30
0.0
 11
-14.068143593
 21
-11.2241167128
 31
0.0
  0
LINE
  5
153
330
1F
100
AcDbEntity
  8
0
  6
Continuous
 62
     7
100
AcDbLine
 10
-14.068143593
 20
-11.2241167128
 30
0.0
 11
-14.033550872
 21
-11.2071698729
 31
0.0
  0
LINE
  5
154
330
1F
100
AcDbEntity
  8
0
  6
Continuous
 62
     7
100
AcDbLine
 10
-14.033550872
 20
-11.2071698729
 30
0.0
 11
-14.0095183857
 21
-11.1423558928
 31
0.0
  0
LINE
  5
155
330
1F
100
AcDbEntity
  8
0
  6
Continuous
 62
     7
100
AcDbLine
 10
-14.0095183857
 20
-11.1423558928
 30
0.0
 11
-13.6392626766
 21
-7.2978772409
 31
0.0
  0
LINE
  5
156
330
1F
100
AcDbEntity
  8
0
  6
Continuous
 62
     7
100
AcDbLine
 10
-13.6392626766
 20
-7.2978772409
 30
0.0
 11
-13.3113595858
 21
-3.6098328643
 31
0.0
  0
LINE
  5
157
330
1F
100
AcDbEntity
  8
0
  6
Continuous
 62
     7
100
AcDbLine
 10
-13.3113595858
 20
-3.6098328643
 30
0.0
 11
-13.2387857085
 21
-3.018829863
 31
0.0
  0
LINE
  5
158
330
1F
100
AcDbEntity
  8
0
  6
Continuous
 62
     7
100
AcDbLine
 10
-13.2387857085
 20
-3.018829863
 30
0.0
 11
-13.1910763926
 21
-2.9102237013
 31
0.0
  0
LINE
  5
159
330
1F
100
AcDbEntity
  8
0
  6
Continuous
 62
     7
100
AcDbLine
 10
-13.1910763926
 20
-2.9102237013
 30
0.0
 11
-13.0944562838
 21
-3.3572004084
 31
0.0
  0
LINE
  5
15A
330
1F
100
AcDbEntity
  8
0
  6
Continuous
 62
     7
100
AcDbLine
 10
-13.0944562838
 20
-3.3572004084
 30
0.0
 11
-12.991552904
 21
-4.3680846617
 31
0.0
  0
LINE
  5
15B
330
1F
100
AcDbEntity
  8
0
  6
Continuous
 62
     7
100
AcDbLine
 10
-12.991552904
 20
-4.3680846617
 30
0.0
 11
-12.9015405508
 21
-5.7090690274
 31
0.0
  0
LINE
  5
15C
330
1F
100
AcDbEntity
  8
0
  6
Continuous
 62
     7
100
AcDbLine
 10
-12.9015405508
 20
-5.7090690274
 30
0.0
 11
-12.8435935213
 21
-7.1463458264
 31
0.0
  0
LINE
  5
15D
330
1F
100
AcDbEntity
  8
0
  6
Continuous
 62
     7
100
AcDbLine
 10
-12.8435935213
 20
-7.1463458264
 30
0.0
 11
-12.7894750188
 21
-9.289431361
 31
0.0
  0
LINE
  5
15E
330
1F
100
AcDbEntity
  8
0
  6
Continuous
 62
     7
100
AcDbLine
 10
-12.7894750188
 20
-9.289431361
 30
0.0
 11
-12.5210483555
 21
-9.2900373767
 31
0.0
  0
LINE
  5
15F
330
1F
100
AcDbEntity
  8
0
  6
Continuous
 62
     7
100
AcDbLine
 10
-12.5210483555
 20
-9.2900373767
 30
0.0
 11
-11.6811319545
 21
-9.3446752511
 31
0.0
  0
LINE
  5
160
330
1F
100
AcDbEntity
  8
0
  6
Continuous
 62
     7
100
AcDbLine
 10
-11.6811319545
 20
-9.3446752511
 30
0.0
 11
-11.109729106
 21
-9.3986204661
 31
0.0
  0
LINE
  5
161
330
1F
100
AcDbEntity
  8
0
  6
Continuous
 62
     7
100
AcDbLine
 10
-11.109729106
 20
-9.3986204661
 30
0.0
 11
-11.0442676292
 21
-7.4607516296
 31
0.0
  0
LINE
  5
162
330
1F
100
AcDbEntity
  8
0
  6
Continuous
 62
     7
100
AcDbLine
 10
-11.0442676292
 20
-7.4607516296
 30
0.0
 11
-10.9314848927
 21
-5.2924363043
 31
0.0
  0
LINE
  5
163
330
1F
100
AcDbEntity
  8
0
  6
Continuous
 62
     7
100
AcDbLine
 10
-10.9314848927
 20
-5.2924363043
 30
0.0
 11
-10.8687049556
 21
-4.8971466735
 31
0.0
  0
LINE
  5
164
330
1F
100
AcDbEntity
  8
0
  6
Continuous
 62
     7
100
AcDbLine
 10
-10.8687049556
 20
-4.8971466735
 30
0.0
 11
-10.8356823773
 21
-4.8713459663
 31
0.0
  0
LINE
  5
165
330
1F
100
AcDbEntity
  8
0
  6
Continuous
 62
     7
100
AcDbLine
 10
-10.8356823773
 20
-4.8713459663
 30
0.0
 11
-10.8015577292
 21
-4.9599658826
 31
0.0
  0
LINE
  5
166
330
1F
100
AcDbEntity
  8
0
  6
Continuous
 62
     7
100
AcDbLine
 10
-10.8015577292
 20
-4.9599658826
 30
0.0
 11
-10.6092428574
 21
-6.6223940806
 31
0.0
  0
LINE
  5
167
330
1F
100
AcDbEntity
  8
0
  6
Continuous
 62
     7
100
AcDbLine
 10
-10.6092428574
 20
-6.6223940806
 30
0.0
 11
-10.354995096
 21
-8.7188078158
 31
0.0
  0
LINE
  5
168
330
1F
100
AcDbEntity
  8
0
  6
Continuous
 62
     7
100
AcDbLine
 10
-10.354995096
 20
-8.7188078158
 30
0.0
 11
-9.5745872765
 21
-13.6188968394
 31
0.0
  0
LINE
  5
169
330
1F
100
AcDbEntity
  8
0
  6
Continuous
 62
     7
100
AcDbLine
 10
-9.5745872765
 20
-13.6188968394
 30
0.0
 11
-9.1349760286
 21
-16.3306479655
 31
0.0
  0
LINE
  5
16A
330
1F
100
AcDbEntity
  8
0
  6
Continuous
 62
     7
100
AcDbLine
 10
-9.1349760286
 20
-16.3306479655
 30
0.0
 11
-9.0048461235
 21
-17.0348274049
 31
0.0
  0
LINE
  5
16B
330
1F
100
AcDbEntity
  8
0
  6
Continuous
 62
     7
100
AcDbLine
 10
-9.0048461235
 20
-17.0348274049
 30
0.0
 11
-8.9163786317
 21
-17.3280690487
 31
0.0
  0
LINE
  5
16C
330
1F
100
AcDbEntity
  8
0
  6
Continuous
 62
     7
100
AcDbLine
 10
-8.9163786317
 20
-17.3280690487
 30
0.0
 11
-8.8835209957
 21
-17.326102259
 31
0.0
  0
LINE
  5
16D
330
1F
100
AcDbEntity
  8
0
  6
Continuous
 62
     7
100
AcDbLine
 10
-8.8835209957
 20
-17.326102259
 30
0.0
 11
-8.8559822581
 21
-17.2280177963
 31
0.0
  0
LINE
  5
16E
330
1F
100
AcDbEntity
  8
0
  6
Continuous
 62
     7
100
AcDbLine
 10
-8.8559822581
 20
-17.2280177963
 30
0.0
 11
-8.8100659534
 21
-16.7523190379
 31
0.0
  0
LINE
  5
16F
330
1F
100
AcDbEntity
  8
0
  6
Continuous
 62
     7
100
AcDbLine
 10
-8.8100659534
 20
-16.7523190379
 30
0.0
 11
-8.7073086163
 21
-14.7445578638
 31
0.0
  0
LINE
  5
170
330
1F
100
AcDbEntity
  8
0
  6
Continuous
 62
     7
100
AcDbLine
 10
-8.7073086163
 20
-14.7445578638
 30
0.0
 11
-8.5730087636
 21
-12.5291053661
 31
0.0
  0
LINE
  5
171
330
1F
100
AcDbEntity
  8
0
  6
Continuous
 62
     7
100
AcDbLine
 10
-8.5730087636
 20
-12.5291053661
 30
0.0
 11
-8.4714394038
 21
-11.5191059596
 31
0.0
  0
LINE
  5
172
330
1F
100
AcDbEntity
  8
0
  6
Continuous
 62
     7
100
AcDbLine
 10
-8.4714394038
 20
-11.5191059596
 30
0.0
 11
-8.4110366486
 21
-11.4463695945
 31
0.0
  0
LINE
  5
173
330
1F
100
AcDbEntity
  8
0
  6
Continuous
 62
     7
100
AcDbLine
 10
-8.4110366486
 20
-11.4463695945
 30
0.0
 11
-8.309419917
 21
-11.3997319127
 31
0.0
  0
LINE
  5
174
330
1F
100
AcDbEntity
  8
0
  6
Continuous
 62
     7
100
AcDbLine
 10
-8.309419917
 20
-11.3997319127
 30
0.0
 11
-7.9200387551
 21
-11.3675747906
 31
0.0
  0
LINE
  5
175
330
1F
100
AcDbEntity
  8
0
  6
Continuous
 62
     7
100
AcDbLine
 10
-7.9200387551
 20
-11.3675747906
 30
0.0
 11
-7.4468281219
 21
-11.3675747906
 31
0.0
  0
LINE
  5
176
330
1F
100
AcDbEntity
  8
0
  6
Continuous
 62
     7
100
AcDbLine
 10
-7.4468281219
 20
-11.3675747906
 30
0.0
 11
-7.4452695153
 21
-10.43673959
 31
0.0
  0
LINE
  5
177
330
1F
100
AcDbEntity
  8
0
  6
Continuous
 62
     7
100
AcDbLine
 10
-7.4452695153
 20
-10.43673959
 30
0.0
 11
-7.4158872038
 21
-9.6031283049
 31
0.0
  0
LINE
  5
178
330
1F
100
AcDbEntity
  8
0
  6
Continuous
 62
     7
100
AcDbLine
 10
-7.4158872038
 20
-9.6031283049
 30
0.0
 11
-7.3180157916
 21
-8.6692136905
 31
0.0
  0
LINE
  5
179
330
1F
100
AcDbEntity
  8
0
  6
Continuous
 62
     7
100
AcDbLine
 10
-7.3180157916
 20
-8.6692136905
 30
0.0
 11
-7.1327809209
 21
-7.4943321154
 31
0.0
  0
LINE
  5
17A
330
1F
100
AcDbEntity
  8
0
  6
Continuous
 62
     7
100
AcDbLine
 10
-7.1327809209
 20
-7.4943321154
 30
0.0
 11
-6.8413089706
 21
-5.9378189668
 31
0.0
  0
LINE
  5
17B
330
1F
100
AcDbEntity
  8
0
  6
Continuous
 62
     7
100
AcDbLine
 10
-6.8413089706
 20
-5.9378189668
 30
0.0
 11
-6.5245544577
 21
-4.2243111808
 31
0.0
  0
LINE
  5
17C
330
1F
100
AcDbEntity
  8
0
  6
Continuous
 62
     7
100
AcDbLine
 10
-6.5245544577
 20
-4.2243111808
 30
0.0
 11
-6.3370346944
 21
-2.92894858
 31
0.0
  0
LINE
  5
17D
330
1F
100
AcDbEntity
  8
0
  6
Continuous
 62
     7
100
AcDbLine
 10
-6.3370346944
 20
-2.92894858
 30
0.0
 11
-6.2564414794
 21
-1.8544861867
 31
0.0
  0
LINE
  5
17E
330
1F
100
AcDbEntity
  8
0
  6
Continuous
 62
     7
100
AcDbLine
 10
-6.2564414794
 20
-1.8544861867
 30
0.0
 11
-6.2604680843
 21
-0.8036790233
 31
0.0
  0
LINE
  5
17F
330
1F
100
AcDbEntity
  8
0
  6
Continuous
 62
     7
100
AcDbLine
 10
-6.2604680843
 20
-0.8036790233
 30
0.0
 11
-6.3203688946
 21
0.119137085
 31
0.0
  0
LINE
  5
180
330
1F
100
AcDbEntity
  8
0
  6
Continuous
 62
     7
100
AcDbLine
 10
-6.3203688946
 20
0.119137085
 30
0.0
 11
-6.4371102463
 21
0.915324385
 31
0.0
  0
LINE
  5
181
330
1F
100
AcDbEntity
  8
0
  6
Continuous
 62
     7
100
AcDbLine
 10
-6.4371102463
 20
0.915324385
 30
0.0
 11
-6.6226251753
 21
1.6451248622
 31
0.0
  0
LINE
  5
182
330
1F
100
AcDbEntity
  8
0
  6
Continuous
 62
     7
100
AcDbLine
 10
-6.6226251753
 20
1.6451248622
 30
0.0
 11
-6.888846717
 21
2.3687800113
 31
0.0
  0
LINE
  5
183
330
1F
100
AcDbEntity
  8
0
  6
Continuous
 62
     7
100
AcDbLine
 10
-6.888846717
 20
2.3687800113
 30
0.0
 11
-7.1117274595
 21
2.9002653496
 31
0.0
  0
LINE
  5
184
330
1F
100
AcDbEntity
  8
0
  6
Continuous
 62
     7
100
AcDbLine
 10
-7.1117274595
 20
2.9002653496
 30
0.0
 11
-7.6015631479
 21
2.7723729653
 31
0.0
  0
LINE
  5
185
330
1F
100
AcDbEntity
  8
0
  6
Continuous
 62
     7
100
AcDbLine
 10
-7.6015631479
 20
2.7723729653
 30
0.0
 11
-8.0325573876
 21
2.6432629044
 31
0.0
  0
LINE
  5
186
330
1F
100
AcDbEntity
  8
0
  6
Continuous
 62
     7
100
AcDbLine
 10
-8.0325573876
 20
2.6432629044
 30
0.0
 11
-8.3511778102
 21
2.4989239071
 31
0.0
  0
LINE
  5
187
330
1F
100
AcDbEntity
  8
0
  6
Continuous
 62
     7
100
AcDbLine
 10
-8.3511778102
 20
2.4989239071
 30
0.0
 11
-8.6116261259
 21
2.307956555
 31
0.0
  0
LINE
  5
188
330
1F
100
AcDbEntity
  8
0
  6
Continuous
 62
     7
100
AcDbLine
 10
-8.6116261259
 20
2.307956555
 30
0.0
 11
-8.8681050265
 21
2.0389614298
 31
0.0
  0
LINE
  5
189
330
1F
100
AcDbEntity
  8
0
  6
Continuous
 62
     7
100
AcDbLine
 10
-8.8681050265
 20
2.0389614298
 30
0.0
 11
-9.1811255107
 21
1.6732946513
 31
0.0
  0
LINE
  5
18A
330
1F
100
AcDbEntity
  8
0
  6
Continuous
 62
     7
100
AcDbLine
 10
-9.1811255107
 20
1.6732946513
 30
0.0
 11
-9.1696956472
 21
2.9675451189
 31
0.0
  0
LINE
  5
18B
330
1F
100
AcDbEntity
  8
0
  6
Continuous
 62
     7
100
AcDbLine
 10
-9.1696956472
 20
2.9675451189
 30
0.0
 11
-9.1894487154
 21
3.9837465524
 31
0.0
  0
LINE
  5
18C
330
1F
100
AcDbEntity
  8
0
  6
Continuous
 62
     7
100
AcDbLine
 10
-9.1894487154
 20
3.9837465524
 30
0.0
 11
-9.2529080577
 21
4.6094517454
 31
0.0
  0
LINE
  5
18D
330
1F
100
AcDbEntity
  8
0
  6
Continuous
 62
     7
100
AcDbLine
 10
-9.2529080577
 20
4.6094517454
 30
0.0
 11
-9.4232237497
 21
5.0575771578
 31
0.0
  0
LINE
  5
18E
330
1F
100
AcDbEntity
  8
0
  6
Continuous
 62
     7
100
AcDbLine
 10
-9.4232237497
 20
5.0575771578
 30
0.0
 11
-9.6833866072
 21
5.4622157282
 31
0.0
  0
LINE
  5
18F
330
1F
100
AcDbEntity
  8
0
  6
Continuous
 62
     7
100
AcDbLine
 10
-9.6833866072
 20
5.4622157282
 30
0.0
 11
-10.0445344084
 21
5.8373544167
 31
0.0
  0
LINE
  5
190
330
1F
100
AcDbEntity
  8
0
  6
Continuous
 62
     7
100
AcDbLine
 10
-10.0445344084
 20
5.8373544167
 30
0.0
 11
-10.517804686
 21
6.1969801833
 31
0.0
  0
LINE
  5
191
330
1F
100
AcDbEntity
  8
0
  6
Continuous
 62
     7
100
AcDbLine
 10
-10.517804686
 20
6.1969801833
 30
0.0
 11
-11.2501769868
 21
6.6430015996
 31
0.0
  0
LINE
  5
192
330
1F
100
AcDbEntity
  8
0
  6
Continuous
 62
     7
100
AcDbLine
 10
-11.2501769868
 20
6.6430015996
 30
0.0
 11
-11.3380868166
 21
6.3345636642
 31
0.0
  0
LINE
  5
193
330
1F
100
AcDbEntity
  8
0
  6
Continuous
 62
     7
100
AcDbLine
 10
-11.3380868166
 20
6.3345636642
 30
0.0
 11
-11.4819766406
 21
5.4851184089
 31
0.0
  0
LINE
  5
194
330
1F
100
AcDbEntity
  8
0
  6
Continuous
 62
     7
100
AcDbLine
 10
-11.4819766406
 20
5.4851184089
 30
0.0
 11
-11.8678184156
 21
2.6184169972
 31
0.0
  0
LINE
  5
195
330
1F
100
AcDbEntity
  8
0
  6
Continuous
 62
     7
100
AcDbLine
 10
-11.8678184156
 20
2.6184169972
 30
0.0
 11
-12.0454455679
 21
1.3104964453
 31
0.0
  0
LINE
  5
196
330
1F
100
AcDbEntity
  8
0
  6
Continuous
 62
     7
100
AcDbLine
 10
-12.0454455679
 20
1.3104964453
 30
0.0
 11
-12.101012961
 21
1.1126925784
 31
0.0
  0
LINE
  5
197
330
1F
100
AcDbEntity
  8
0
  6
Continuous
 62
     7
100
AcDbLine
 10
-12.101012961
 20
1.1126925784
 30
0.0
 11
-12.1273926843
 21
1.0915652365
 31
0.0
  0
LINE
  5
198
330
1F
100
AcDbEntity
  8
0
  6
Continuous
 62
     7
100
AcDbLine
 10
-12.1273926843
 20
1.0915652365
 30
0.0
 11
-12.1554682207
 21
1.1084728045
 31
0.0
  0
LINE
  5
199
330
1F
100
AcDbEntity
  8
0
  6
Continuous
 62
     7
100
AcDbLine
 10
-12.1554682207
 20
1.1084728045
 30
0.0
 11
-12.4895296484
 21
2.2269468116
 31
0.0
  0
LINE
  5
19A
330
1F
100
AcDbEntity
  8
0
  6
Continuous
 62
     7
100
AcDbLine
 10
-12.4895296484
 20
2.2269468116
 30
0.0
 11
-12.693718157
 21
3.0649906756
 31
0.0
  0
LINE
  5
19B
330
1F
100
AcDbEntity
  8
0
  6
Continuous
 62
     7
100
AcDbLine
 10
-12.693718157
 20
3.0649906756
 30
0.0
 11
-12.7293726941
 21
3.319201865
 31
0.0
  0
LINE
  5
19C
330
1F
100
AcDbEntity
  8
0
  6
Continuous
 62
     7
100
AcDbLine
 10
-12.7293726941
 20
3.319201865
 30
0.0
 11
-12.7184717751
 21
3.4514927107
 31
0.0
  0
LINE
  5
19D
330
1F
100
AcDbEntity
  8
0
  6
Continuous
 62
     7
100
AcDbLine
 10
-12.7184717751
 20
3.4514927107
 30
0.0
 11
-12.2506298666
 21
4.057011862
 31
0.0
  0
LINE
  5
19E
330
1F
100
AcDbEntity
  8
0
  6
Continuous
 62
     7
100
AcDbLine
 10
-12.2506298666
 20
4.057011862
 30
0.0
 11
-11.8550032331
 21
4.5204378821
 31
0.0
  0
LINE
  5
19F
330
1F
100
AcDbEntity
  8
0
  6
Continuous
 62
     7
100
AcDbLine
 10
-11.8550032331
 20
4.5204378821
 30
0.0
 11
-12.486758765
 21
5.0961702206
 31
0.0
  0
LINE
  5
1A0
330
1F
100
AcDbEntity
  8
0
  6
Continuous
 62
     7
100
AcDbLine
 10
-12.486758765
 20
5.0961702206
 30
0.0
 11
-12.9971162705
 21
5.5217783086
 31
0.0
  0
LINE
  5
1A1
330
1F
100
AcDbEntity
  8
0
  6
Continuous
 62
     7
100
AcDbLine
 10
-12.9971162705
 20
5.5217783086
 30
0.0
 11
-13.1233526045
 21
5.5802152559
 31
0.0
  0
LINE
  5
1A2
330
1F
100
AcDbEntity
  8
0
  6
Continuous
 62
     7
100
AcDbLine
 10
-13.1233526045
 20
5.5802152559
 30
0.0
 11
-13.1876992481
 21
5.5513702342
 31
0.0
  0
LINE
  5
1A3
330
1F
100
AcDbEntity
  8
0
  6
Continuous
 62
     7
100
AcDbLine
 10
-13.1876992481
 20
5.5513702342
 30
0.0
 11
-13.2567543562
 21
5.4661878432
 31
0.0
  0
LINE
  5
1A4
330
1F
100
AcDbEntity
  8
0
  6
Continuous
 62
     7
100
AcDbLine
 10
-13.2567543562
 20
5.4661878432
 30
0.0
 11
-13.325549533
 21
5.4307512656
 31
0.0
  0
LINE
  5
1A5
330
1F
100
AcDbEntity
  8
0
  6
Continuous
 62
     7
100
AcDbLine
 10
-13.325549533
 20
5.4307512656
 30
0.0
 11
-13.4583666231
 21
5.7105429936
 31
0.0
  0
LINE
  5
1A6
330
1F
100
AcDbEntity
  8
0
  6
Continuous
 62
     7
100
AcDbLine
 10
-13.4583666231
 20
5.7105429936
 30
0.0
 11
-13.6812584108
 21
6.3832336709
 31
0.0
  0
LINE
  5
1A7
330
1F
100
AcDbEntity
  8
0
  6
Continuous
 62
     7
100
AcDbLine
 10
-13.6812584108
 20
6.3832336709
 30
0.0
 11
-13.9014875584
 21
7.0559243481
 31
0.0
  0
LINE
  5
1A8
330
1F
100
AcDbEntity
  8
0
  6
Continuous
 62
     7
100
AcDbLine
 10
-13.9014875584
 20
7.0559243481
 30
0.0
 11
-14.027875335
 21
7.3357160761
 31
0.0
  0
LINE
  5
1A9
330
1F
100
AcDbEntity
  8
0
  6
Continuous
 62
     7
100
AcDbLine
 10
-14.027875335
 20
7.3357160761
 30
0.0
 11
-14.1033487114
 21
6.876284016
 31
0.0
  0
LINE
  5
1AA
330
1F
100
AcDbEntity
  8
0
  6
Continuous
 62
     7
100
AcDbLine
 10
-14.1033487114
 20
6.876284016
 30
0.0
 11
-14.2012272417
 21
5.7716533808
 31
0.0
  0
LINE
  5
1AB
330
1F
100
AcDbEntity
  8
0
  6
Continuous
 62
     7
100
AcDbLine
 10
1.4215733208
 20
3.7244521107
 30
0.0
 11
0.2085869977
 21
4.1502664468
 31
0.0
  0
LINE
  5
1AC
330
1F
100
AcDbEntity
  8
0
  6
Continuous
 62
     7
100
AcDbLine
 10
0.2085869977
 20
4.1502664468
 30
0.0
 11
-3.378837361
 21
7.8862054976
 31
0.0
  0
LINE
  5
1AD
330
1F
100
AcDbEntity
  8
0
  6
Continuous
 62
     7
100
AcDbLine
 10
-3.378837361
 20
7.8862054976
 30
0.0
 11
-7.6518621862
 21
12.3502454792
 31
0.0
  0
LINE
  5
1AE
330
1F
100
AcDbEntity
  8
0
  6
Continuous
 62
     7
100
AcDbLine
 10
-7.6518621862
 20
12.3502454792
 30
0.0
 11
-8.2433464413
 21
12.9329302937
 31
0.0
  0
LINE
  5
1AF
330
1F
100
AcDbEntity
  8
0
  6
Continuous
 62
     7
100
AcDbLine
 10
-8.2433464413
 20
12.9329302937
 30
0.0
 11
-8.4993500796
 21
13.039279505
 31
0.0
  0
LINE
  5
1B0
330
1F
100
AcDbEntity
  8
0
  6
Continuous
 62
     7
100
AcDbLine
 10
-8.4993500796
 20
13.039279505
 30
0.0
 11
-8.691480914
 21
12.9151312092
 31
0.0
  0
LINE
  5
1B1
330
1F
100
AcDbEntity
  8
0
  6
Continuous
 62
     7
100
AcDbLine
 10
-8.691480914
 20
12.9151312092
 30
0.0
 11
-8.8150405288
 21
12.7795725125
 31
0.0
  0
LINE
  5
1B2
330
1F
100
AcDbEntity
  8
0
  6
Continuous
 62
     7
100
AcDbLine
 10
-8.8150405288
 20
12.7795725125
 30
0.0
 11
-8.7931145215
 21
12.5497360222
 31
0.0
  0
LINE
  5
1B3
330
1F
100
AcDbEntity
  8
0
  6
Continuous
 62
     7
100
AcDbLine
 10
-8.7931145215
 20
12.5497360222
 30
0.0
 11
-8.2968636121
 21
11.9413711675
 31
0.0
  0
LINE
  5
1B4
330
1F
100
AcDbEntity
  8
0
  6
Continuous
 62
     7
100
AcDbLine
 10
-8.2968636121
 20
11.9413711675
 30
0.0
 11
-3.7101220103
 21
7.1402747367
 31
0.0
  0
LINE
  5
1B5
330
1F
100
AcDbEntity
  8
0
  6
Continuous
 62
     7
100
AcDbLine
 10
-3.7101220103
 20
7.1402747367
 30
0.0
 11
-0.1850548836
 21
3.4731454159
 31
0.0
  0
LINE
  5
1B6
330
1F
100
AcDbEntity
  8
0
  6
Continuous
 62
     7
100
AcDbLine
 10
-0.1850548836
 20
3.4731454159
 30
0.0
 11
1.1919892019
 21
2.9980708202
 31
0.0
  0
LINE
  5
1B7
330
1F
100
AcDbEntity
  8
0
  6
Continuous
 62
     7
100
AcDbLine
 10
1.1919892019
 20
2.9980708202
 30
0.0
 11
2.5789345556
 21
2.5195806713
 31
0.0
  0
LINE
  5
1B8
330
1F
100
AcDbEntity
  8
0
  6
Continuous
 62
     7
100
AcDbLine
 10
2.5789345556
 20
2.5195806713
 30
0.0
 11
5.1736172802
 21
3.1503416561
 31
0.0
  0
LINE
  5
1B9
330
1F
100
AcDbEntity
  8
0
  6
Continuous
 62
     7
100
AcDbLine
 10
5.1736172802
 20
3.1503416561
 30
0.0
 11
11.8147372936
 21
4.8025155496
 31
0.0
  0
LINE
  5
1BA
330
1F
100
AcDbEntity
  8
0
  6
Continuous
 62
     7
100
AcDbLine
 10
11.8147372936
 20
4.8025155496
 30
0.0
 11
14.134683347
 21
5.4036587801
 31
0.0
  0
LINE
  5
1BB
330
1F
100
AcDbEntity
  8
0
  6
Continuous
 62
     7
100
AcDbLine
 10
14.134683347
 20
5.4036587801
 30
0.0
 11
15.2540912503
 21
5.7263351756
 31
0.0
  0
LINE
  5
1BC
330
1F
100
AcDbEntity
  8
0
  6
Continuous
 62
     7
100
AcDbLine
 10
15.2540912503
 20
5.7263351756
 30
0.0
 11
15.0630060475
 21
6.1584927891
 31
0.0
  0
LINE
  5
1BD
330
1F
100
AcDbEntity
  8
0
  6
Continuous
 62
     7
100
AcDbLine
 10
15.0630060475
 20
6.1584927891
 30
0.0
 11
14.9045631167
 21
6.2538005453
 31
0.0
  0
LINE
  5
1BE
330
1F
100
AcDbEntity
  8
0
  6
Continuous
 62
     7
100
AcDbLine
 10
14.9045631167
 20
6.2538005453
 30
0.0
 11
14.6568440372
 21
6.2402495651
 31
0.0
  0
LINE
  5
1BF
330
1F
100
AcDbEntity
  8
0
  6
Continuous
 62
     7
100
AcDbLine
 10
14.6568440372
 20
6.2402495651
 30
0.0
 11
13.515536808
 21
5.997051228
 31
0.0
  0
LINE
  5
1C0
330
1F
100
AcDbEntity
  8
0
  6
Continuous
 62
     7
100
AcDbLine
 10
13.515536808
 20
5.997051228
 30
0.0
 11
5.1766053553
 21
3.9385462083
 31
0.0
  0
LINE
  5
1C1
330
1F
100
AcDbEntity
  8
0
  6
Continuous
 62
     7
100
AcDbLine
 10
5.1766053553
 20
3.9385462083
 30
0.0
 11
2.623056593
 21
3.302593359
 31
0.0
  0
LINE
  5
1C2
330
1F
100
AcDbEntity
  8
0
  6
Continuous
 62
     7
100
AcDbLine
 10
2.623056593
 20
3.302593359
 30
0.0
 11
1.4215733208
 21
3.7244521107
 31
0.0
  0
LINE
  5
1C3
330
1F
100
AcDbEntity
  8
0
  6
Continuous
 62
     7
100
AcDbLine
 10
0.7178510127
 20
2.1109171417
 30
0.0
 11
-0.4951353104
 21
2.5367314778
 31
0.0
  0
LINE
  5
1C4
330
1F
100
AcDbEntity
  8
0
  6
Continuous
 62
     7
100
AcDbLine
 10
-0.4951353104
 20
2.5367314778
 30
0.0
 11
-4.0825596691
 21
6.2726705285
 31
0.0
  0
LINE
  5
1C5
330
1F
100
AcDbEntity
  8
0
  6
Continuous
 62
     7
100
AcDbLine
 10
-4.0825596691
 20
6.2726705285
 30
0.0
 11
-8.3555844944
 21
10.7367105101
 31
0.0
  0
LINE
  5
1C6
330
1F
100
AcDbEntity
  8
0
  6
Continuous
 62
     7
100
AcDbLine
 10
-8.3555844944
 20
10.7367105101
 30
0.0
 11
-8.9470687494
 21
11.3193953247
 31
0.0
  0
LINE
  5
1C7
330
1F
100
AcDbEntity
  8
0
  6
Continuous
 62
     7
100
AcDbLine
 10
-8.9470687494
 20
11.3193953247
 30
0.0
 11
-9.2030723877
 21
11.425744536
 31
0.0
  0
LINE
  5
1C8
330
1F
100
AcDbEntity
  8
0
  6
Continuous
 62
     7
100
AcDbLine
 10
-9.2030723877
 20
11.425744536
 30
0.0
 11
-9.3952032221
 21
11.3015962401
 31
0.0
  0
LINE
  5
1C9
330
1F
100
AcDbEntity
  8
0
  6
Continuous
 62
     7
100
AcDbLine
 10
-9.3952032221
 20
11.3015962401
 30
0.0
 11
-9.518762837
 21
11.1660375435
 31
0.0
  0
LINE
  5
1CA
330
1F
100
AcDbEntity
  8
0
  6
Continuous
 62
     7
100
AcDbLine
 10
-9.518762837
 20
11.1660375435
 30
0.0
 11
-9.4968368297
 21
10.9362010532
 31
0.0
  0
LINE
  5
1CB
330
1F
100
AcDbEntity
  8
0
  6
Continuous
 62
     7
100
AcDbLine
 10
-9.4968368297
 20
10.9362010532
 30
0.0
 11
-9.0005859202
 21
10.3278361985
 31
0.0
  0
LINE
  5
1CC
330
1F
100
AcDbEntity
  8
0
  6
Continuous
 62
     7
100
AcDbLine
 10
-9.0005859202
 20
10.3278361985
 30
0.0
 11
-4.4138443185
 21
5.5267397677
 31
0.0
  0
LINE
  5
1CD
330
1F
100
AcDbEntity
  8
0
  6
Continuous
 62
     7
100
AcDbLine
 10
-4.4138443185
 20
5.5267397677
 30
0.0
 11
-0.8887771917
 21
1.8596104468
 31
0.0
  0
LINE
  5
1CE
330
1F
100
AcDbEntity
  8
0
  6
Continuous
 62
     7
100
AcDbLine
 10
-0.8887771917
 20
1.8596104468
 30
0.0
 11
0.4882668938
 21
1.3845358512
 31
0.0
  0
LINE
  5
1CF
330
1F
100
AcDbEntity
  8
0
  6
Continuous
 62
     7
100
AcDbLine
 10
0.4882668938
 20
1.3845358512
 30
0.0
 11
1.8752122475
 21
0.9060457023
 31
0.0
  0
LINE
  5
1D0
330
1F
100
AcDbEntity
  8
0
  6
Continuous
 62
     7
100
AcDbLine
 10
1.8752122475
 20
0.9060457023
 30
0.0
 11
4.4698949721
 21
1.5368066871
 31
0.0
  0
LINE
  5
1D1
330
1F
100
AcDbEntity
  8
0
  6
Continuous
 62
     7
100
AcDbLine
 10
4.4698949721
 20
1.5368066871
 30
0.0
 11
11.1110149855
 21
3.1889805805
 31
0.0
  0
LINE
  5
1D2
330
1F
100
AcDbEntity
  8
0
  6
Continuous
 62
     7
100
AcDbLine
 10
11.1110149855
 20
3.1889805805
 30
0.0
 11
13.4309610389
 21
3.7901238111
 31
0.0
  0
LINE
  5
1D3
330
1F
100
AcDbEntity
  8
0
  6
Continuous
 62
     7
100
AcDbLine
 10
13.4309610389
 20
3.7901238111
 30
0.0
 11
14.5503689422
 21
4.1128002066
 31
0.0
  0
LINE
  5
1D4
330
1F
100
AcDbEntity
  8
0
  6
Continuous
 62
     7
100
AcDbLine
 10
14.5503689422
 20
4.1128002066
 30
0.0
 11
14.3592837394
 21
4.54495782
 31
0.0
  0
LINE
  5
1D5
330
1F
100
AcDbEntity
  8
0
  6
Continuous
 62
     7
100
AcDbLine
 10
14.3592837394
 20
4.54495782
 30
0.0
 11
14.2008408086
 21
4.6402655763
 31
0.0
  0
LINE
  5
1D6
330
1F
100
AcDbEntity
  8
0
  6
Continuous
 62
     7
100
AcDbLine
 10
14.2008408086
 20
4.6402655763
 30
0.0
 11
13.953121729
 21
4.6267145961
 31
0.0
  0
LINE
  5
1D7
330
1F
100
AcDbEntity
  8
0
  6
Continuous
 62
     7
100
AcDbLine
 10
13.953121729
 20
4.6267145961
 30
0.0
 11
12.8118144999
 21
4.383516259
 31
0.0
  0
LINE
  5
1D8
330
1F
100
AcDbEntity
  8
0
  6
Continuous
 62
     7
100
AcDbLine
 10
12.8118144999
 20
4.383516259
 30
0.0
 11
4.4728830472
 21
2.3250112392
 31
0.0
  0
LINE
  5
1D9
330
1F
100
AcDbEntity
  8
0
  6
Continuous
 62
     7
100
AcDbLine
 10
4.4728830472
 20
2.3250112392
 30
0.0
 11
1.9193342849
 21
1.68905839
 31
0.0
  0
LINE
  5
1DA
330
1F
100
AcDbEntity
  8
0
  6
Continuous
 62
     7
100
AcDbLine
 10
1.9193342849
 20
1.68905839
 30
0.0
 11
0.7178510127
 21
2.1109171417
 31
0.0
  0
LINE
  5
1DB
330
1F
100
AcDbEntity
  8
0
  6
Continuous
 62
     7
100
AcDbLine
 10
-12.4961522557
 20
9.8996070085
 30
0.0
 11
-12.4626410286
 21
9.6750955995
 31
0.0
  0
LINE
  5
1DC
330
1F
100
AcDbEntity
  8
0
  6
Continuous
 62
     7
100
AcDbLine
 10
-12.4626410286
 20
9.6750955995
 30
0.0
 11
-12.3283581741
 21
9.4711298751
 31
0.0
  0
LINE
  5
1DD
330
1F
100
AcDbEntity
  8
0
  6
Continuous
 62
     7
100
AcDbLine
 10
-12.3283581741
 20
9.4711298751
 30
0.0
 11
-11.7651228485
 21
8.8148619751
 31
0.0
  0
LINE
  5
1DE
330
1F
100
AcDbEntity
  8
0
  6
Continuous
 62
     7
100
AcDbLine
 10
-11.7651228485
 20
8.8148619751
 30
0.0
 11
-8.7934820673
 21
5.674377736
 31
0.0
  0
LINE
  5
1DF
330
1F
100
AcDbEntity
  8
0
  6
Continuous
 62
     7
100
AcDbLine
 10
-8.7934820673
 20
5.674377736
 30
0.0
 11
-4.5387454143
 21
1.2512671095
 31
0.0
  0
LINE
  5
1E0
330
1F
100
AcDbEntity
  8
0
  6
Continuous
 62
     7
100
AcDbLine
 10
-4.5387454143
 20
1.2512671095
 30
0.0
 11
-4.060204701
 21
0.7616786744
 31
0.0
  0
LINE
  5
1E1
330
1F
100
AcDbEntity
  8
0
  6
Continuous
 62
     7
100
AcDbLine
 10
-4.060204701
 20
0.7616786744
 30
0.0
 11
-3.781808782
 21
-0.8378049654
 31
0.0
  0
LINE
  5
1E2
330
1F
100
AcDbEntity
  8
0
  6
Continuous
 62
     7
100
AcDbLine
 10
-3.781808782
 20
-0.8378049654
 30
0.0
 11
-3.5008737399
 21
-2.4522753932
 31
0.0
  0
LINE
  5
1E3
330
1F
100
AcDbEntity
  8
0
  6
Continuous
 62
     7
100
AcDbLine
 10
-3.5008737399
 20
-2.4522753932
 30
0.0
 11
-4.3949399129
 21
-5.4837020642
 31
0.0
  0
LINE
  5
1E4
330
1F
100
AcDbEntity
  8
0
  6
Continuous
 62
     7
100
AcDbLine
 10
-4.3949399129
 20
-5.4837020642
 30
0.0
 11
-5.4721464706
 21
-9.2217939466
 31
0.0
  0
LINE
  5
1E5
330
1F
100
AcDbEntity
  8
0
  6
Continuous
 62
     7
100
AcDbLine
 10
-5.4721464706
 20
-9.2217939466
 30
0.0
 11
-6.2055298906
 21
-11.7792824256
 31
0.0
  0
LINE
  5
1E6
330
1F
100
AcDbEntity
  8
0
  6
Continuous
 62
     7
100
AcDbLine
 10
-6.2055298906
 20
-11.7792824256
 30
0.0
 11
-6.5915720271
 21
-13.145924819
 31
0.0
  0
LINE
  5
1E7
330
1F
100
AcDbEntity
  8
0
  6
Continuous
 62
     7
100
AcDbLine
 10
-6.5915720271
 20
-13.145924819
 30
0.0
 11
-6.7478859028
 21
-13.8631823498
 31
0.0
  0
LINE
  5
1E8
330
1F
100
AcDbEntity
  8
0
  6
Continuous
 62
     7
100
AcDbLine
 10
-6.7478859028
 20
-13.8631823498
 30
0.0
 11
-6.5433161077
 21
-14.0844523675
 31
0.0
  0
LINE
  5
1E9
330
1F
100
AcDbEntity
  8
0
  6
Continuous
 62
     7
100
AcDbLine
 10
-6.5433161077
 20
-14.0844523675
 30
0.0
 11
-6.2907989862
 21
-14.0505652356
 31
0.0
  0
LINE
  5
1EA
330
1F
100
AcDbEntity
  8
0
  6
Continuous
 62
     7
100
AcDbLine
 10
-6.2907989862
 20
-14.0505652356
 30
0.0
 11
-6.144895122
 21
-13.8645683038
 31
0.0
  0
LINE
  5
1EB
330
1F
100
AcDbEntity
  8
0
  6
Continuous
 62
     7
100
AcDbLine
 10
-6.144895122
 20
-13.8645683038
 30
0.0
 11
-6.0294011069
 21
-13.618322495
 31
0.0
  0
LINE
  5
1EC
330
1F
100
AcDbEntity
  8
0
  6
Continuous
 62
     7
100
AcDbLine
 10
-6.0294011069
 20
-13.618322495
 30
0.0
 11
-5.7349248442
 21
-12.7680314877
 31
0.0
  0
LINE
  5
1ED
330
1F
100
AcDbEntity
  8
0
  6
Continuous
 62
     7
100
AcDbLine
 10
-5.7349248442
 20
-12.7680314877
 30
0.0
 11
-5.2809629459
 21
-11.2730223029
 31
0.0
  0
LINE
  5
1EE
330
1F
100
AcDbEntity
  8
0
  6
Continuous
 62
     7
100
AcDbLine
 10
-5.2809629459
 20
-11.2730223029
 30
0.0
 11
-4.2670917409
 21
-7.7863236014
 31
0.0
  0
LINE
  5
1EF
330
1F
100
AcDbEntity
  8
0
  6
Continuous
 62
     7
100
AcDbLine
 10
-4.2670917409
 20
-7.7863236014
 30
0.0
 11
-3.3935349454
 21
-4.7415602695
 31
0.0
  0
LINE
  5
1F0
330
1F
100
AcDbEntity
  8
0
  6
Continuous
 62
     7
100
AcDbLine
 10
-3.3935349454
 20
-4.7415602695
 30
0.0
 11
-2.7305851123
 21
-2.4748470302
 31
0.0
  0
LINE
  5
1F1
330
1F
100
AcDbEntity
  8
0
  6
Continuous
 62
     7
100
AcDbLine
 10
-2.7305851123
 20
-2.4748470302
 30
0.0
 11
-3.051540897
 21
-0.667826775
 31
0.0
  0
LINE
  5
1F2
330
1F
100
AcDbEntity
  8
0
  6
Continuous
 62
     7
100
AcDbLine
 10
-3.051540897
 20
-0.667826775
 30
0.0
 11
-3.3748950669
 21
1.1526073573
 31
0.0
  0
LINE
  5
1F3
330
1F
100
AcDbEntity
  8
0
  6
Continuous
 62
     7
100
AcDbLine
 10
-3.3748950669
 20
1.1526073573
 30
0.0
 11
-3.7903851026
 21
1.5863130194
 31
0.0
  0
LINE
  5
1F4
330
1F
100
AcDbEntity
  8
0
  6
Continuous
 62
     7
100
AcDbLine
 10
-3.7903851026
 20
1.5863130194
 30
0.0
 11
-12.0516441775
 21
10.1350266519
 31
0.0
  0
LINE
  5
1F5
330
1F
100
AcDbEntity
  8
0
  6
Continuous
 62
     7
100
AcDbLine
 10
-12.0516441775
 20
10.1350266519
 30
0.0
 11
-12.2859517172
 21
10.0806633855
 31
0.0
  0
LINE
  5
1F6
330
1F
100
AcDbEntity
  8
0
  6
Continuous
 62
     7
100
AcDbLine
 10
-12.2859517172
 20
10.0806633855
 30
0.0
 11
-12.4961522557
 21
9.8996070085
 31
0.0
  0
LINE
  5
1F7
330
1F
100
AcDbEntity
  8
0
  6
Continuous
 62
     7
100
AcDbLine
 10
-10.9026630173
 20
10.3816345208
 30
0.0
 11
-10.8691517902
 21
10.1571231118
 31
0.0
  0
LINE
  5
1F8
330
1F
100
AcDbEntity
  8
0
  6
Continuous
 62
     7
100
AcDbLine
 10
-10.8691517902
 20
10.1571231118
 30
0.0
 11
-10.7348689356
 21
9.9531573874
 31
0.0
  0
LINE
  5
1F9
330
1F
100
AcDbEntity
  8
0
  6
Continuous
 62
     7
100
AcDbLine
 10
-10.7348689356
 20
9.9531573874
 30
0.0
 11
-10.1716336101
 21
9.2968894875
 31
0.0
  0
LINE
  5
1FA
330
1F
100
AcDbEntity
  8
0
  6
Continuous
 62
     7
100
AcDbLine
 10
-10.1716336101
 20
9.2968894875
 30
0.0
 11
-7.1999928289
 21
6.1564052483
 31
0.0
  0
LINE
  5
1FB
330
1F
100
AcDbEntity
  8
0
  6
Continuous
 62
     7
100
AcDbLine
 10
-7.1999928289
 20
6.1564052483
 30
0.0
 11
-2.9452561758
 21
1.7332946218
 31
0.0
  0
LINE
  5
1FC
330
1F
100
AcDbEntity
  8
0
  6
Continuous
 62
     7
100
AcDbLine
 10
-2.9452561758
 20
1.7332946218
 30
0.0
 11
-2.4667154626
 21
1.2437061867
 31
0.0
  0
LINE
  5
1FD
330
1F
100
AcDbEntity
  8
0
  6
Continuous
 62
     7
100
AcDbLine
 10
-2.4667154626
 20
1.2437061867
 30
0.0
 11
-2.1883195436
 21
-0.3557774531
 31
0.0
  0
LINE
  5
1FE
330
1F
100
AcDbEntity
  8
0
  6
Continuous
 62
     7
100
AcDbLine
 10
-2.1883195436
 20
-0.3557774531
 30
0.0
 11
-1.9073845015
 21
-1.9702478809
 31
0.0
  0
LINE
  5
1FF
330
1F
100
AcDbEntity
  8
0
  6
Continuous
 62
     7
100
AcDbLine
 10
-1.9073845015
 20
-1.9702478809
 30
0.0
 11
-2.8014506745
 21
-5.0016745519
 31
0.0
  0
LINE
  5
200
330
1F
100
AcDbEntity
  8
0
  6
Continuous
 62
     7
100
AcDbLine
 10
-2.8014506745
 20
-5.0016745519
 30
0.0
 11
-3.8786572322
 21
-8.7397664343
 31
0.0
  0
LINE
  5
201
330
1F
100
AcDbEntity
  8
0
  6
Continuous
 62
     7
100
AcDbLine
 10
-3.8786572322
 20
-8.7397664343
 30
0.0
 11
-4.6120406522
 21
-11.2972549133
 31
0.0
  0
LINE
  5
202
330
1F
100
AcDbEntity
  8
0
  6
Continuous
 62
     7
100
AcDbLine
 10
-4.6120406522
 20
-11.2972549133
 30
0.0
 11
-4.9980827887
 21
-12.6638973067
 31
0.0
  0
LINE
  5
203
330
1F
100
AcDbEntity
  8
0
  6
Continuous
 62
     7
100
AcDbLine
 10
-4.9980827887
 20
-12.6638973067
 30
0.0
 11
-5.1543966644
 21
-13.3811548375
 31
0.0
  0
LINE
  5
204
330
1F
100
AcDbEntity
  8
0
  6
Continuous
 62
     7
100
AcDbLine
 10
-5.1543966644
 20
-13.3811548375
 30
0.0
 11
-4.9498268693
 21
-13.6024248552
 31
0.0
  0
LINE
  5
205
330
1F
100
AcDbEntity
  8
0
  6
Continuous
 62
     7
100
AcDbLine
 10
-4.9498268693
 20
-13.6024248552
 30
0.0
 11
-4.6973097478
 21
-13.5685377233
 31
0.0
  0
LINE
  5
206
330
1F
100
AcDbEntity
  8
0
  6
Continuous
 62
     7
100
AcDbLine
 10
-4.6973097478
 20
-13.5685377233
 30
0.0
 11
-4.5514058835
 21
-13.3825407915
 31
0.0
  0
LINE
  5
207
330
1F
100
AcDbEntity
  8
0
  6
Continuous
 62
     7
100
AcDbLine
 10
-4.5514058835
 20
-13.3825407915
 30
0.0
 11
-4.4359118685
 21
-13.1362949827
 31
0.0
  0
LINE
  5
208
330
1F
100
AcDbEntity
  8
0
  6
Continuous
 62
     7
100
AcDbLine
 10
-4.4359118685
 20
-13.1362949827
 30
0.0
 11
-4.1414356058
 21
-12.2860039754
 31
0.0
  0
LINE
  5
209
330
1F
100
AcDbEntity
  8
0
  6
Continuous
 62
     7
100
AcDbLine
 10
-4.1414356058
 20
-12.2860039754
 30
0.0
 11
-3.6874737075
 21
-10.7909947906
 31
0.0
  0
LINE
  5
20A
330
1F
100
AcDbEntity
  8
0
  6
Continuous
 62
     7
100
AcDbLine
 10
-3.6874737075
 20
-10.7909947906
 30
0.0
 11
-2.6736025025
 21
-7.3042960891
 31
0.0
  0
LINE
  5
20B
330
1F
100
AcDbEntity
  8
0
  6
Continuous
 62
     7
100
AcDbLine
 10
-2.6736025025
 20
-7.3042960891
 30
0.0
 11
-1.800045707
 21
-4.2595327572
 31
0.0
  0
LINE
  5
20C
330
1F
100
AcDbEntity
  8
0
  6
Continuous
 62
     7
100
AcDbLine
 10
-1.800045707
 20
-4.2595327572
 30
0.0
 11
-1.1370958739
 21
-1.9928195179
 31
0.0
  0
LINE
  5
20D
330
1F
100
AcDbEntity
  8
0
  6
Continuous
 62
     7
100
AcDbLine
 10
-1.1370958739
 20
-1.9928195179
 30
0.0
 11
-1.4580516586
 21
-0.1857992627
 31
0.0
  0
LINE
  5
20E
330
1F
100
AcDbEntity
  8
0
  6
Continuous
 62
     7
100
AcDbLine
 10
-1.4580516586
 20
-0.1857992627
 30
0.0
 11
-1.7814058284
 21
1.6346348696
 31
0.0
  0
LINE
  5
20F
330
1F
100
AcDbEntity
  8
0
  6
Continuous
 62
     7
100
AcDbLine
 10
-1.7814058284
 20
1.6346348696
 30
0.0
 11
-2.1968958642
 21
2.0683405317
 31
0.0
  0
LINE
  5
210
330
1F
100
AcDbEntity
  8
0
  6
Continuous
 62
     7
100
AcDbLine
 10
-2.1968958642
 20
2.0683405317
 30
0.0
 11
-10.4581549391
 21
10.6170541642
 31
0.0
  0
LINE
  5
211
330
1F
100
AcDbEntity
  8
0
  6
Continuous
 62
     7
100
AcDbLine
 10
-10.4581549391
 20
10.6170541642
 30
0.0
 11
-10.6924624788
 21
10.5626908978
 31
0.0
  0
LINE
  5
212
330
1F
100
AcDbEntity
  8
0
  6
Continuous
 62
     7
100
AcDbLine
 10
-10.6924624788
 20
10.5626908978
 30
0.0
 11
-10.9026630173
 21
10.3816345208
 31
0.0
  0
LINE
  5
213
330
1F
100
AcDbEntity
  8
0
  6
Continuous
 62
     7
100
AcDbLine
 10
11.9446195595
 20
1.0317264305
 30
0.0
 11
6.0553115546
 21
-0.4358371083
 31
0.0
  0
LINE
  5
214
330
1F
100
AcDbEntity
  8
0
  6
Continuous
 62
     7
100
AcDbLine
 10
6.0553115546
 20
-0.4358371083
 30
0.0
 11
3.9775026264
 21
-0.9701945902
 31
0.0
  0
LINE
  5
215
330
1F
100
AcDbEntity
  8
0
  6
Continuous
 62
     7
100
AcDbLine
 10
3.9775026264
 20
-0.9701945902
 30
0.0
 11
2.9556545116
 21
-1.2780376676
 31
0.0
  0
LINE
  5
216
330
1F
100
AcDbEntity
  8
0
  6
Continuous
 62
     7
100
AcDbLine
 10
2.9556545116
 20
-1.2780376676
 30
0.0
 11
2.5088719844
 21
-1.7081058872
 31
0.0
  0
LINE
  5
217
330
1F
100
AcDbEntity
  8
0
  6
Continuous
 62
     7
100
AcDbLine
 10
2.5088719844
 20
-1.7081058872
 30
0.0
 11
1.7862209196
 21
-2.486663827
 31
0.0
  0
LINE
  5
218
330
1F
100
AcDbEntity
  8
0
  6
Continuous
 62
     7
100
AcDbLine
 10
1.7862209196
 20
-2.486663827
 30
0.0
 11
0.8167516701
 21
-3.5657309511
 31
0.0
  0
LINE
  5
219
330
1F
100
AcDbEntity
  8
0
  6
Continuous
 62
     7
100
AcDbLine
 10
0.8167516701
 20
-3.5657309511
 30
0.0
 11
0.0902046542
 21
-6.0101557041
 31
0.0
  0
LINE
  5
21A
330
1F
100
AcDbEntity
  8
0
  6
Continuous
 62
     7
100
AcDbLine
 10
0.0902046542
 20
-6.0101557041
 30
0.0
 11
-1.0538991109
 21
-9.970088901
 31
0.0
  0
LINE
  5
21B
330
1F
100
AcDbEntity
  8
0
  6
Continuous
 62
     7
100
AcDbLine
 10
-1.0538991109
 20
-9.970088901
 30
0.0
 11
-2.0465625431
 21
-13.4276957498
 31
0.0
  0
LINE
  5
21C
330
1F
100
AcDbEntity
  8
0
  6
Continuous
 62
     7
100
AcDbLine
 10
-2.0465625431
 20
-13.4276957498
 30
0.0
 11
-2.4322608377
 21
-14.7954316672
 31
0.0
  0
LINE
  5
21D
330
1F
100
AcDbEntity
  8
0
  6
Continuous
 62
     7
100
AcDbLine
 10
-2.4322608377
 20
-14.7954316672
 30
0.0
 11
-2.5938483084
 21
-15.5294260477
 31
0.0
  0
LINE
  5
21E
330
1F
100
AcDbEntity
  8
0
  6
Continuous
 62
     7
100
AcDbLine
 10
-2.5938483084
 20
-15.5294260477
 30
0.0
 11
-2.3027804235
 21
-15.767221084
 31
0.0
  0
LINE
  5
21F
330
1F
100
AcDbEntity
  8
0
  6
Continuous
 62
     7
100
AcDbLine
 10
-2.3027804235
 20
-15.767221084
 30
0.0
 11
-2.026462409
 21
-15.6430421592
 31
0.0
  0
LINE
  5
220
330
1F
100
AcDbEntity
  8
0
  6
Continuous
 62
     7
100
AcDbLine
 10
-2.026462409
 20
-15.6430421592
 30
0.0
 11
-1.8714366812
 21
-15.4021725362
 31
0.0
  0
LINE
  5
221
330
1F
100
AcDbEntity
  8
0
  6
Continuous
 62
     7
100
AcDbLine
 10
-1.8714366812
 20
-15.4021725362
 30
0.0
 11
-1.7577093061
 21
-15.0884378106
 31
0.0
  0
LINE
  5
222
330
1F
100
AcDbEntity
  8
0
  6
Continuous
 62
     7
100
AcDbLine
 10
-1.7577093061
 20
-15.0884378106
 30
0.0
 11
-0.9309814568
 21
-12.2895751356
 31
0.0
  0
LINE
  5
223
330
1F
100
AcDbEntity
  8
0
  6
Continuous
 62
     7
100
AcDbLine
 10
-0.9309814568
 20
-12.2895751356
 30
0.0
 11
0.1834925536
 21
-8.4355110401
 31
0.0
  0
LINE
  5
224
330
1F
100
AcDbEntity
  8
0
  6
Continuous
 62
     7
100
AcDbLine
 10
0.1834925536
 20
-8.4355110401
 30
0.0
 11
1.0437962767
 21
-5.4263950568
 31
0.0
  0
LINE
  5
225
330
1F
100
AcDbEntity
  8
0
  6
Continuous
 62
     7
100
AcDbLine
 10
1.0437962767
 20
-5.4263950568
 30
0.0
 11
1.3313204432
 21
-4.4935132969
 31
0.0
  0
LINE
  5
226
330
1F
100
AcDbEntity
  8
0
  6
Continuous
 62
     7
100
AcDbLine
 10
1.3313204432
 20
-4.4935132969
 30
0.0
 11
1.4551695425
 21
-4.1802464782
 31
0.0
  0
LINE
  5
227
330
1F
100
AcDbEntity
  8
0
  6
Continuous
 62
     7
100
AcDbLine
 10
1.4551695425
 20
-4.1802464782
 30
0.0
 11
1.593681674
 21
-3.9180510466
 31
0.0
  0
LINE
  5
228
330
1F
100
AcDbEntity
  8
0
  6
Continuous
 62
     7
100
AcDbLine
 10
1.593681674
 20
-3.9180510466
 30
0.0
 11
2.0349854914
 21
-3.3460334634
 31
0.0
  0
LINE
  5
229
330
1F
100
AcDbEntity
  8
0
  6
Continuous
 62
     7
100
AcDbLine
 10
2.0349854914
 20
-3.3460334634
 30
0.0
 11
2.8442174313
 21
-2.4847583725
 31
0.0
  0
LINE
  5
22A
330
1F
100
AcDbEntity
  8
0
  6
Continuous
 62
     7
100
AcDbLine
 10
2.8442174313
 20
-2.4847583725
 30
0.0
 11
3.4376637883
 21
-1.8632915707
 31
0.0
  0
LINE
  5
22B
330
1F
100
AcDbEntity
  8
0
  6
Continuous
 62
     7
100
AcDbLine
 10
3.4376637883
 20
-1.8632915707
 30
0.0
 11
5.9357417217
 21
-1.2579946199
 31
0.0
  0
LINE
  5
22C
330
1F
100
AcDbEntity
  8
0
  6
Continuous
 62
     7
100
AcDbLine
 10
5.9357417217
 20
-1.2579946199
 30
0.0
 11
15.5699378982
 21
1.1519147503
 31
0.0
  0
LINE
  5
22D
330
1F
100
AcDbEntity
  8
0
  6
Continuous
 62
     7
100
AcDbLine
 10
15.5699378982
 20
1.1519147503
 30
0.0
 11
15.6134456659
 21
1.4254812759
 31
0.0
  0
LINE
  5
22E
330
1F
100
AcDbEntity
  8
0
  6
Continuous
 62
     7
100
AcDbLine
 10
15.6134456659
 20
1.4254812759
 30
0.0
 11
15.5133011988
 21
1.6137049983
 31
0.0
  0
LINE
  5
22F
330
1F
100
AcDbEntity
  8
0
  6
Continuous
 62
     7
100
AcDbLine
 10
15.5133011988
 20
1.6137049983
 30
0.0
 11
15.3683782754
 21
1.7526286326
 31
0.0
  0
LINE
  5
230
330
1F
100
AcDbEntity
  8
0
  6
Continuous
 62
     7
100
AcDbLine
 10
15.3683782754
 20
1.7526286326
 30
0.0
 11
15.1747367702
 21
1.8187386066
 31
0.0
  0
LINE
  5
231
330
1F
100
AcDbEntity
  8
0
  6
Continuous
 62
     7
100
AcDbLine
 10
15.1747367702
 20
1.8187386066
 30
0.0
 11
11.9446195595
 21
1.0317264305
 31
0.0
  0
LINE
  5
232
330
1F
100
AcDbEntity
  8
0
  6
Continuous
 62
     7
100
AcDbLine
 10
10.9751503099
 20
2.2403525898
 30
0.0
 11
5.085842305
 21
0.772789051
 31
0.0
  0
LINE
  5
233
330
1F
100
AcDbEntity
  8
0
  6
Continuous
 62
     7
100
AcDbLine
 10
5.085842305
 20
0.772789051
 30
0.0
 11
3.0080333768
 21
0.2384315692
 31
0.0
  0
LINE
  5
234
330
1F
100
AcDbEntity
  8
0
  6
Continuous
 62
     7
100
AcDbLine
 10
3.0080333768
 20
0.2384315692
 30
0.0
 11
1.986185262
 21
-0.0694115083
 31
0.0
  0
LINE
  5
235
330
1F
100
AcDbEntity
  8
0
  6
Continuous
 62
     7
100
AcDbLine
 10
1.986185262
 20
-0.0694115083
 30
0.0
 11
1.5394027348
 21
-0.4994797278
 31
0.0
  0
LINE
  5
236
330
1F
100
AcDbEntity
  8
0
  6
Continuous
 62
     7
100
AcDbLine
 10
1.5394027348
 20
-0.4994797278
 30
0.0
 11
0.8167516701
 21
-1.2780376676
 31
0.0
  0
LINE
  5
237
330
1F
100
AcDbEntity
  8
0
  6
Continuous
 62
     7
100
AcDbLine
 10
0.8167516701
 20
-1.2780376676
 30
0.0
 11
-0.1527175795
 21
-2.3571047917
 31
0.0
  0
LINE
  5
238
330
1F
100
AcDbEntity
  8
0
  6
Continuous
 62
     7
100
AcDbLine
 10
-0.1527175795
 20
-2.3571047917
 30
0.0
 11
-0.8792645954
 21
-4.8015295447
 31
0.0
  0
LINE
  5
239
330
1F
100
AcDbEntity
  8
0
  6
Continuous
 62
     7
100
AcDbLine
 10
-0.8792645954
 20
-4.8015295447
 30
0.0
 11
-2.0233683604
 21
-8.7614627417
 31
0.0
  0
LINE
  5
23A
330
1F
100
AcDbEntity
  8
0
  6
Continuous
 62
     7
100
AcDbLine
 10
-2.0233683604
 20
-8.7614627417
 30
0.0
 11
-3.0160317927
 21
-12.2190695904
 31
0.0
  0
LINE
  5
23B
330
1F
100
AcDbEntity
  8
0
  6
Continuous
 62
     7
100
AcDbLine
 10
-3.0160317927
 20
-12.2190695904
 30
0.0
 11
-3.4017300873
 21
-13.5868055079
 31
0.0
  0
LINE
  5
23C
330
1F
100
AcDbEntity
  8
0
  6
Continuous
 62
     7
100
AcDbLine
 10
-3.4017300873
 20
-13.5868055079
 30
0.0
 11
-3.5633175579
 21
-14.3207998883
 31
0.0
  0
LINE
  5
23D
330
1F
100
AcDbEntity
  8
0
  6
Continuous
 62
     7
100
AcDbLine
 10
-3.5633175579
 20
-14.3207998883
 30
0.0
 11
-3.272249673
 21
-14.5585949246
 31
0.0
  0
LINE
  5
23E
330
1F
100
AcDbEntity
  8
0
  6
Continuous
 62
     7
100
AcDbLine
 10
-3.272249673
 20
-14.5585949246
 30
0.0
 11
-2.9959316585
 21
-14.4344159999
 31
0.0
  0
LINE
  5
23F
330
1F
100
AcDbEntity
  8
0
  6
Continuous
 62
     7
100
AcDbLine
 10
-2.9959316585
 20
-14.4344159999
 30
0.0
 11
-2.8409059307
 21
-14.1935463768
 31
0.0
  0
LINE
  5
240
330
1F
100
AcDbEntity
  8
0
  6
Continuous
 62
     7
100
AcDbLine
 10
-2.8409059307
 20
-14.1935463768
 30
0.0
 11
-2.7271785556
 21
-13.8798116513
 31
0.0
  0
LINE
  5
241
330
1F
100
AcDbEntity
  8
0
  6
Continuous
 62
     7
100
AcDbLine
 10
-2.7271785556
 20
-13.8798116513
 30
0.0
 11
-1.9004507064
 21
-11.0809489763
 31
0.0
  0
LINE
  5
242
330
1F
100
AcDbEntity
  8
0
  6
Continuous
 62
     7
100
AcDbLine
 10
-1.9004507064
 20
-11.0809489763
 30
0.0
 11
-0.785976696
 21
-7.2268848807
 31
0.0
  0
LINE
  5
243
330
1F
100
AcDbEntity
  8
0
  6
Continuous
 62
     7
100
AcDbLine
 10
-0.785976696
 20
-7.2268848807
 30
0.0
 11
0.0743270272
 21
-4.2177688974
 31
0.0
  0
LINE
  5
244
330
1F
100
AcDbEntity
  8
0
  6
Continuous
 62
     7
100
AcDbLine
 10
0.0743270272
 20
-4.2177688974
 30
0.0
 11
0.3618511936
 21
-3.2848871376
 31
0.0
  0
LINE
  5
245
330
1F
100
AcDbEntity
  8
0
  6
Continuous
 62
     7
100
AcDbLine
 10
0.3618511936
 20
-3.2848871376
 30
0.0
 11
0.485700293
 21
-2.9716203188
 31
0.0
  0
LINE
  5
246
330
1F
100
AcDbEntity
  8
0
  6
Continuous
 62
     7
100
AcDbLine
 10
0.485700293
 20
-2.9716203188
 30
0.0
 11
0.6242124244
 21
-2.7094248872
 31
0.0
  0
LINE
  5
247
330
1F
100
AcDbEntity
  8
0
  6
Continuous
 62
     7
100
AcDbLine
 10
0.6242124244
 20
-2.7094248872
 30
0.0
 11
1.0655162418
 21
-2.137407304
 31
0.0
  0
LINE
  5
248
330
1F
100
AcDbEntity
  8
0
  6
Continuous
 62
     7
100
AcDbLine
 10
1.0655162418
 20
-2.137407304
 30
0.0
 11
1.8747481817
 21
-1.2761322131
 31
0.0
  0
LINE
  5
249
330
1F
100
AcDbEntity
  8
0
  6
Continuous
 62
     7
100
AcDbLine
 10
1.8747481817
 20
-1.2761322131
 30
0.0
 11
2.4681945388
 21
-0.6546654113
 31
0.0
  0
LINE
  5
24A
330
1F
100
AcDbEntity
  8
0
  6
Continuous
 62
     7
100
AcDbLine
 10
2.4681945388
 20
-0.6546654113
 30
0.0
 11
4.9662724721
 21
-0.0493684605
 31
0.0
  0
LINE
  5
24B
330
1F
100
AcDbEntity
  8
0
  6
Continuous
 62
     7
100
AcDbLine
 10
4.9662724721
 20
-0.0493684605
 30
0.0
 11
14.6004686486
 21
2.3605409096
 31
0.0
  0
LINE
  5
24C
330
1F
100
AcDbEntity
  8
0
  6
Continuous
 62
     7
100
AcDbLine
 10
14.6004686486
 20
2.3605409096
 30
0.0
 11
14.6439764164
 21
2.6341074353
 31
0.0
  0
LINE
  5
24D
330
1F
100
AcDbEntity
  8
0
  6
Continuous
 62
     7
100
AcDbLine
 10
14.6439764164
 20
2.6341074353
 30
0.0
 11
14.5438319493
 21
2.8223311576
 31
0.0
  0
LINE
  5
24E
330
1F
100
AcDbEntity
  8
0
  6
Continuous
 62
     7
100
AcDbLine
 10
14.5438319493
 20
2.8223311576
 30
0.0
 11
14.3989090259
 21
2.961254792
 31
0.0
  0
LINE
  5
24F
330
1F
100
AcDbEntity
  8
0
  6
Continuous
 62
     7
100
AcDbLine
 10
14.3989090259
 20
2.961254792
 30
0.0
 11
14.2052675206
 21
3.027364766
 31
0.0
  0
LINE
  5
250
330
1F
100
AcDbEntity
  8
0
  6
Continuous
 62
     7
100
AcDbLine
 10
14.2052675206
 20
3.027364766
 30
0.0
 11
10.9751503099
 21
2.2403525898
 31
0.0
  0
ENDSEC
  0
SECTION
  2
OBJECTS
  0
DICTIONARY
  5
C
330
0
100
AcDbDictionary
281
     1
  3
ACAD_GROUP
350
D
  3
ACAD_LAYOUT
350
1A
  3
ACAD_MLINESTYLE
350
17
  3
ACAD_PLOTSETTINGS
350
19
  3
ACAD_PLOTSTYLENAME
350
E
  3
ACAD_SCALELIST
350
47
  3
DWGPROPS
350
251
  0
DICTIONARY
  5
D
102
{ACAD_REACTORS
330
C
102
}
330
C
100
AcDbDictionary
281
     1
  0
DICTIONARY
  5
1A
102
{ACAD_REACTORS
330
C
102
}
330
C
100
AcDbDictionary
281
     1
  3
Layout1
350
1E
  3
Layout2
350
26
  3
Model
350
22
  0
DICTIONARY
  5
17
102
{ACAD_REACTORS
330
C
102
}
330
C
100
AcDbDictionary
281
     1
  3
Standard
350
18
  0
DICTIONARY
  5
19
102
{ACAD_REACTORS
330
C
102
}
330
C
100
AcDbDictionary
281
     1
  0
ACDBDICTIONARYWDFLT
  5
E
102
{ACAD_REACTORS
330
C
102
}
330
C
100
AcDbDictionary
281
     1
  3
Normal
350
F
100
AcDbDictionaryWithDefault
340
F
  0
DICTIONARY
  5
47
102
{ACAD_REACTORS
330
C
102
}
330
C
100
AcDbDictionary
281
     1
  3
A0
350
48
  3
A1
350
49
  3
A2
350
4A
  3
A3
350
4B
  3
A4
350
4C
  3
A5
350
4D
  3
A6
350
4E
  3
A7
350
4F
  3
A8
350
50
  3
A9
350
51
  3
B0
350
52
  3
B1
350
53
  3
B2
350
54
  3
B3
350
55
  3
B4
350
56
  3
B5
350
57
  3
B6
350
58
  0
XRECORD
  5
251
102
{ACAD_REACTORS
330
C
102
}
330
C
100
AcDbXrecord
280
     1
  1
DWGPROPS COOKIE
  2

  3

  4

  6

  7

  8
fablabhyo
  9

300
=
301
=
302
=
303
=
304
=
305
=
306
=
307
=
308
=
309
=
 40
0.0
 41
2461216.836490081
 42
2461216.836551551
  1

 90
        0
  0
LAYOUT
  5
1E
102
{ACAD_REACTORS
330
1A
102
}
330
1A
100
AcDbPlotSettings
  1

  2
none_device
  4

  6

 40
0.0
 41
0.0
 42
0.0
 43
0.0
 44
0.0
 45
0.0
 46
0.0
 47
0.0
 48
0.0
 49
0.0
140
0.0
141
0.0
142
1.0
143
1.0
 70
   688
 72
     1
 73
     0
 74
     5
  7

 75
    16
147
1.0
148
0.0
149
0.0
100
AcDbLayout
  1
Layout1
 70
     1
 71
     1
 10
0.0
 20
0.0
 11
420.0
 21
297.0
 12
0.0
 22
0.0
 32
0.0
 14
1.0000000000E+20
 24
1.0000000000E+20
 34
1.0000000000E+20
 15
-1.0000000000E+20
 25
-1.0000000000E+20
 35
-1.0000000000E+20
146
0.0
 13
0.0
 23
0.0
 33
0.0
 16
1.0
 26
0.0
 36
0.0
 17
0.0
 27
1.0
 37
0.0
 76
     0
330
1B
  0
LAYOUT
  5
26
102
{ACAD_REACTORS
330
1A
102
}
330
1A
100
AcDbPlotSettings
  1

  2
none_device
  4

  6

 40
0.0
 41
0.0
 42
0.0
 43
0.0
 44
0.0
 45
0.0
 46
0.0
 47
0.0
 48
0.0
 49
0.0
140
0.0
141
0.0
142
1.0
143
1.0
 70
   688
 72
     1
 73
     0
 74
     5
  7

 75
    16
147
1.0
148
0.0
149
0.0
100
AcDbLayout
  1
Layout2
 70
     1
 71
     2
 10
0.0
 20
0.0
 11
0.0
 21
0.0
 12
0.0
 22
0.0
 32
0.0
 14
0.0
 24
0.0
 34
0.0
 15
0.0
 25
0.0
 35
0.0
146
0.0
 13
0.0
 23
0.0
 33
0.0
 16
1.0
 26
0.0
 36
0.0
 17
0.0
 27
1.0
 37
0.0
 76
     0
330
23
  0
LAYOUT
  5
22
102
{ACAD_REACTORS
330
1A
102
}
330
1A
100
AcDbPlotSettings
  1

  2
none_device
  4
ANSI_A_(11.00_x_8.50_Inches)
  6

 40
6.35
 41
19.05
 42
6.35000508
 43
19.05000254
 44
279.4
 45
215.9
 46
133.34999746
 47
88.89999873
 48
0.0
 49
0.0
140
0.0
141
0.0
142
0.1450862069
143
1.0
 70
  1696
 72
     0
 73
     0
 74
     0
  7

 75
     0
147
0.0179189148
148
-1300.4909072572
149
0.0
100
AcDbLayout
  1
Model
 70
     1
 71
     0
 10
0.0
 20
0.0
 11
420.0
 21
297.0
 12
0.0
 22
0.0
 32
0.0
 14
-29.0
 24
-29.0
 34
0.0
 15
29.0
 25
29.0
 35
0.0
146
0.0
 13
0.0
 23
0.0
 33
0.0
 16
1.0
 26
0.0
 36
0.0
 17
0.0
 27
1.0
 37
0.0
 76
     0
330
1F
331
29
  0
MLINESTYLE
  5
18
102
{ACAD_REACTORS
330
17
102
}
330
17
100
AcDbMlineStyle
  2
Standard
 70
     0
  3

 62
   256
 51
90.0
 52
90.0
 71
     2
 49
0.5
 62
   256
  6
BYLAYER
 49
-0.5
 62
   256
  6
BYLAYER
  0
ACDBPLACEHOLDER
  5
F
102
{ACAD_REACTORS
330
E
102
}
330
E
  0
SCALE
  5
48
102
{ACAD_REACTORS
330
47
102
}
330
47
100
AcDbScale
 70
     0
300
1:1
140
1.0
141
1.0
290
     1
  0
SCALE
  5
49
102
{ACAD_REACTORS
330
47
102
}
330
47
100
AcDbScale
 70
     0
300
1:2
140
1.0
141
2.0
290
     0
  0
SCALE
  5
4A
102
{ACAD_REACTORS
330
47
102
}
330
47
100
AcDbScale
 70
     0
300
1:4
140
1.0
141
4.0
290
     0
  0
SCALE
  5
4B
102
{ACAD_REACTORS
330
47
102
}
330
47
100
AcDbScale
 70
     0
300
1:5
140
1.0
141
5.0
290
     0
  0
SCALE
  5
4C
102
{ACAD_REACTORS
330
47
102
}
330
47
100
AcDbScale
 70
     0
300
1:8
140
1.0
141
8.0
290
     0
  0
SCALE
  5
4D
102
{ACAD_REACTORS
330
47
102
}
330
47
100
AcDbScale
 70
     0
300
1:10
140
1.0
141
10.0
290
     0
  0
SCALE
  5
4E
102
{ACAD_REACTORS
330
47
102
}
330
47
100
AcDbScale
 70
     0
300
1:16
140
1.0
141
16.0
290
     0
  0
SCALE
  5
4F
102
{ACAD_REACTORS
330
47
102
}
330
47
100
AcDbScale
 70
     0
300
1:20
140
1.0
141
20.0
290
     0
  0
SCALE
  5
50
102
{ACAD_REACTORS
330
47
102
}
330
47
100
AcDbScale
 70
     0
300
1:30
140
1.0
141
30.0
290
     0
  0
SCALE
  5
51
102
{ACAD_REACTORS
330
47
102
}
330
47
100
AcDbScale
 70
     0
300
1:40
140
1.0
141
40.0
290
     0
  0
SCALE
  5
52
102
{ACAD_REACTORS
330
47
102
}
330
47
100
AcDbScale
 70
     0
300
1:50
140
1.0
141
50.0
290
     0
  0
SCALE
  5
53
102
{ACAD_REACTORS
330
47
102
}
330
47
100
AcDbScale
 70
     0
300
1:100
140
1.0
141
100.0
290
     0
  0
SCALE
  5
54
102
{ACAD_REACTORS
330
47
102
}
330
47
100
AcDbScale
 70
     0
300
2:1
140
2.0
141
1.0
290
     0
  0
SCALE
  5
55
102
{ACAD_REACTORS
330
47
102
}
330
47
100
AcDbScale
 70
     0
300
4:1
140
4.0
141
1.0
290
     0
  0
SCALE
  5
56
102
{ACAD_REACTORS
330
47
102
}
330
47
100
AcDbScale
 70
     0
300
8:1
140
8.0
141
1.0
290
     0
  0
SCALE
  5
57
102
{ACAD_REACTORS
330
47
102
}
330
47
100
AcDbScale
 70
     0
300
10:1
140
10.0
141
1.0
290
     0
  0
SCALE
  5
58
102
{ACAD_REACTORS
330
47
102
}
330
47
100
AcDbScale
 70
     0
300
100:1
140
100.0
141
1.0
290
     0
  0
ENDSEC
  0
EOF
